<svg version="1.2" xmlns="http://www.w3.org/2000/svg" viewBox="0 0 701 526" width="701" height="526">
	<title>illustration-5-svg</title>
	<style>
		.s0 { fill: #3f3d56 } 
		.s1 { fill: #ff6347 } 
		.s2 { fill: #2f2e41 } 
		.s3 { fill: #a0616a } 
		.s4 { opacity: .1;fill: #000000 } 
		.s5 { fill: #f2f2f2 } 
	</style>
	<path id="Layer" class="s0" d="m130.1 484.6c12.5 23 38.8 32.9 38.8 32.9 0 0 6.3-27.5-6.2-50.5-12.4-23.1-38.8-32.9-38.8-32.9 0 0-6.2 27.4 6.2 50.5z"/>
	<path id="Layer" class="s1" d="m138.7 477c22.4 13.5 31.1 40.3 31.1 40.3 0 0-27.8 4.9-50.2-8.6-22.5-13.5-31.1-40.3-31.1-40.3 0 0 27.7-4.9 50.2 8.6z"/>
	<path id="Layer" class="s2" d="m-98 523.8h896v2h-896z"/>
	<path id="Layer" class="s3" d="m516.3 38.3l41-8c0 0 10-34 22-30 12 4-8 38-8 38l-57 26z"/>
	<path id="Layer" class="s3" d="m267.3 72.3l-18 23c0 0-26-1-18 13 8 14 26 6 27 3 1-3 30-29 30-29z"/>
	<path id="Layer" class="s1" d="m340.8 45.8l15-8c0 0 64-5 88 11 24 16-101 18-101 18z"/>
	<path id="Layer" class="s0" d="m369.3 31.3c0 0-8-19 3-21q2.4-0.4 4.8-0.7 2.4-0.2 4.7-0.2 2.4 0 4.8 0.2 2.4 0.3 4.7 0.7l-12 10z"/>
	<path id="Layer" class="s4" d="m369.3 31.3c0 0-8-19 3-21q2.4-0.4 4.8-0.7 2.4-0.2 4.7-0.2 2.4 0 4.8 0.2 2.4 0.3 4.7 0.7l-12 10z"/>
	<path id="Layer" class="s2" d="m314.3 146.3l-29-2 5 9c0 0-40 12-27 46 13 34 33 66 33 66l13 25c0 0 27 4 28-4 1-8 0-12-5-16-5-4-8-12-8-16 0-4 1-8-2-10-3-2-4-5-4-11 0-6-11-28-11-28 0 0 35-1 46 8 11 9 47 43 47 43q0.8 0.8 1.5 1.6 0.7 0.9 1.3 1.7 0.6 0.9 1.2 1.8 0.6 1 1 1.9c2 4 2 6 6 8 4 2 1 10 0 11-1 1-11 41-11 41 0 0-11 19 1 20 12 1 23 2 24 0q0.5-1 0.9-2 0.5-1.1 1-2.1 0.5-1 1-1.9 0.6-1 1.1-2c3-5 0-16 0-16 0 0 29-37 20-60-9-23-28-75-28-75l-29-12-53-19z"/>
	<path id="Layer" class="s2" d="m312.3 285.3c0 0-6 23-8 24-2 1-24 20-9 23 15 3 26 2 29-1 3-3 2-6 7-7 5-1 14-4 13-11-1-7-6-26-9-28-3-2-23 0-23 0z"/>
	<path id="Layer" class="s2" d="m399.3 336.3c0 0-9 7-4 20 5 13 12 27 12 27 0 0 8 25 21 21 5.3-1.6 8-6 9.2-10.7q0.7-2.7 0.8-5.4 0.2-2.8-0.3-5.5-0.5-2.7-1.5-5.2-1-2.6-2.6-4.8l-7.6-11.4-8-21z"/>
	<path id="Layer" class="s3" d="m374.3 42.3c0 0-12-1-14 2-2 3-11 43 0 47 11 4 44 11 49 6 5-5 7-49 7-49z"/>
	<path id="Layer" class="s4" d="m374.3 42.3c0 0-12-1-14 2-2 3-11 43 0 47 11 4 44 11 49 6 5-5 7-49 7-49z"/>
	<path id="Layer" class="s5" d="m356.3 75.3c0 0 14 14 23 12 9-2 30-11 32-15 2-4 27-5 27-5l-27 75 19 63c0 0 11-13-19-14-30-1-70-16-77-36 0 0-44-6-46-7-2-1 5-7 5-7l29-8 21-27z"/>
	<path id="Layer" class="s1" d="m365.3 44.3c0 0 5-7 0-7-5 0-19 0-24 1-5 1-24-4-26 2-2 6-2 43 2 46 4 3 6 3 1 9-5 6-17 26-14 33 3 7-32 9-27 17q1.1 1.7 2.5 3.2 1.4 1.4 3.1 2.4 1.7 1.1 3.6 1.7 1.9 0.6 3.8 0.7c1.4 0.1 2-16 14-8 12 8 28 28 41 15 13-13 18-25 19-42 1-17 0-28-2-38-2-10 3-36 3-36z"/>
	<path id="Layer" class="s1" d="m417.3 63.3c0 0 8 7 0 24-8 17-29 57-12 83 17 26 24 33 20 38q-0.9 1.2-1.6 2.5-0.7 1.3-1.2 2.7-0.5 1.4-0.8 2.9-0.3 1.4-0.4 2.9l11-4c0 0 2-14 6-24 4-10-8-40-8-40l4-39c0 0 16-25 18-26 2-1-4-44-4-44 0 0-10-3-15 0-5 3-16 21-16 21z"/>
	<path id="Layer" class="s1" d="m321.3 41.3h-6l-41 21c0 0-3-13-5-10-2 3-1 11-6 13-5 2-8 5 0 9 8 4 9 1 9 8 0 7 6 8 11 6 5-2 6-3 11-1 5 2 2 5 9 2 7-3 25-2 25-2z"/>
	<path id="Layer" class="s1" d="m441.3 44.3l7-2c0 0 21 2 26 2 5 0 10-1 13-1 3 0 18-2 20-4 2-2 11-7 12-4 1 3 12 22 2 31-10 9-12 5-18 9-6 4-54 12-55 11-1-1-7-42-7-42z"/>
	<path id="Layer" class="s3" d="m400.3 82.3c-16.5 0-30-13.4-30-30 0-16.6 13.5-30 30-30 16.6 0 30 13.4 30 30 0 16.6-13.4 30-30 30z"/>
	<path id="Layer" class="s2" d="m378.3 53.5q0.1 0.3 0.2 0.5 0.1 0.3 0.2 0.6 0.1 0.2 0.1 0.5 0.1 0.3 0.1 0.5 0.3 1.3 1 2.4 0.7 1.1 1.7 2 1 0.8 2.3 1.2 1.2 0.5 2.5 0.5-0.2 1 0 1.9 0.2 1 0.8 1.8 0.6 0.9 1.4 1.4 0.9 0.5 1.9 0.6 0.7-1 1.4-2 0.7-1.1 1.2-2.2 0.6-1.1 1-2.2 0.5-1.2 0.8-2.4 0.1-0.4 0.3-0.9 0.1-0.4 0.3-0.9 0.2-0.4 0.4-0.8 0.3-0.4 0.5-0.8c1.1-1.1 2.8-1.4 4.3-1.6q3-0.4 6-0.7 3-0.3 6-0.5 3-0.2 6-0.4 3.1-0.1 6.1-0.2 0.4 0.1 0.8 0 0.4 0 0.8-0.1 0.4-0.1 0.8-0.2 0.4-0.1 0.7-0.3c2.3-1.5 1.5-5 0.1-7.3q-1-1.6-2.3-3.1-1.4-1.4-2.9-2.6-1.6-1.3-3.3-2.2-1.7-0.9-3.6-1.5c-3.6-1.2-7.4-1.4-11.1-1.9-5-0.5-10-1.5-15.1-1.5-5-0.1-10.3 0.9-14.4 3.8-3 2.1-7.9 8.1-5.5 11.8 0.4 0.6 1.6 0.9 2.1 1.5 0.7 0.9 0.7 2.1 1.5 2.9 1.4 1.2 3.8 0.8 4.9 2.4z"/>
	<path id="Layer" class="s0" d="m400.3 2.3c0 0-34 12-31 29 3 17 12 37 31 36 19-1 29-21.7 29-21.7l-5-28.3c0 0-19-15-24-15z"/>
	<path id="Layer" class="s2" d="m396.1 62.3c0 0 13.3-14.5 20.1-6.1 0 0-0.4-0.4-20.1 6.1z"/>
	<path id="Layer" class="s2" d="m421.3 433.1c-17.9 0-40.1-5.9-61.7-27.4-52.9-52.5-103.2-57.8-103.7-57.8l0.2-2c0.5 0 51.5 5.4 104.9 58.4 27.4 27.3 55.8 28.9 74.7 25.5q4.7-0.8 9.2-2.1 4.6-1.3 9-3.1 4.4-1.8 8.6-4 4.2-2.2 8.2-4.9l1.2 1.7q-4.1 2.6-8.4 4.9-4.3 2.3-8.8 4.1-4.5 1.8-9.1 3.2-4.7 1.3-9.5 2.2-1.8 0.3-3.7 0.6-1.8 0.2-3.7 0.4-1.8 0.2-3.7 0.3-1.8 0-3.7 0z"/>
	<path id="Layer" class="s2" d="m282.8 389.8c-6.6 0-12-5.3-12-12 0-6.6 5.4-12 12-12 6.7 0 12 5.4 12 12 0 6.7-5.3 12-12 12z"/>
	<path id="Layer" class="s2" d="m367.8 445.8c-6.6 0-12-5.3-12-12 0-6.6 5.4-12 12-12 6.7 0 12 5.4 12 12 0 6.7-5.3 12-12 12z"/>
	<path id="Layer" class="s0" d="m585.5 524.8q-36.5-5.7-70.1-9.7l8.6-17.3c-3-1-16 9-16 9l11-50c-15 2-22 53-22 53l-17-17 8.4 19.3c-68.7-7.2-128-9.5-177.8-9l7.4-14.8c-3-1-16 9-16 9l11-50c-15 2-22 53-22 53l-17-17 8.9 20.4q-12.8 0.4-25.6 1.1-12.8 0.7-25.6 1.7-12.7 1-25.4 2.4-12.8 1.3-25.5 3c7.4-23 33.2-45.1 33.2-45.1-19.8 6.2-30.1 16.2-35.5 25.6q-0.4-17.7 0.8-35.4 1.1-17.6 3.8-35.1 2.7-17.5 7-34.7 4.2-17.1 9.9-33.9c3.8-11.1-40 90-34 150l0.8 10.7c-34.8 5.4-52.3 10.8-52.3 10.8z"/>
</svg>