<svg version="1.2" xmlns="http://www.w3.org/2000/svg" viewBox="0 0 1049 787" width="1049" height="787">
	<title>illustration-7-svg</title>
	<defs>
		<linearGradient id="g1" x2="1" gradientUnits="userSpaceOnUse" gradientTransform="matrix(0,-533.26,202.44,0,217.65,773.77)">
			<stop offset="0" stop-color="#808080" stop-opacity=".25"/>
			<stop offset=".54" stop-color="#808080" stop-opacity=".12"/>
			<stop offset="1" stop-color="#808080" stop-opacity=".1"/>
		</linearGradient>
		<linearGradient id="g2" x2="1" gradientUnits="userSpaceOnUse" gradientTransform="matrix(0,-543.36,304.819,0,701.17,554.69)">
			<stop offset="0" stop-color="#808080" stop-opacity=".25"/>
			<stop offset=".54" stop-color="#808080" stop-opacity=".12"/>
			<stop offset="1" stop-color="#808080" stop-opacity=".1"/>
		</linearGradient>
	</defs>
	<style>
		.s0 { opacity: .1;fill: #ffc431 } 
		.s1 { fill: #ffc431 } 
		.s2 { opacity: .1;fill: #000000 } 
		.s3 { fill: #ffd037 } 
		.s4 { fill: #a8a8a8 } 
		.s5 { opacity: .2;fill: #000000 } 
		.s6 { fill: #e74d89 } 
		.s7 { fill: #b2215a } 
		.s8 { fill: url(#g1) } 
		.s9 { fill: #925978 } 
		.s10 { fill: #ff6484 } 
		.s11 { fill: #575988 } 
		.s12 { fill: #ffc5cb } 
		.s13 { fill: #e8f4ff } 
		.s14 { opacity: .1;fill: #ffffff } 
		.s15 { fill: #000000 } 
		.s16 { fill: #1769ff } 
		.s17 { fill: #ffffff } 
		.s18 { fill: #b3bbc6 } 
		.s19 { fill: #666c76 } 
		.s20 { fill: url(#g2) } 
		.s21 { fill: #ffaab0 } 
		.s22 { fill: #dce6f2 } 
		.s23 { fill: #f1faff } 
		.s24 { fill: #794f6a } 
		.s25 { fill: #61beec } 
		.s26 { fill: #4064ac } 
		.s27 { fill: #d4dfec } 
	</style>
	<path id="Layer" class="s0" d="m328.5 29.7c29.2-26 75.1-31.4 116.8-29.3 131.1 6.5 249.4 69.8 351.7 141.4 37.1 25.9 73.6 53.8 97.6 89.5 49 72.7 34.5 173.3-33.6 233.1-23.2 20.4-51.2 36-80.1 49.9-51.2 24.6-106.6 44.3-164.7 50-41.5 4-83.5 0.7-124.8-4.9-115.2-15.6-228.3-50.2-323.1-109.3-41.6-25.9-80.8-58.1-97.9-100.1-17.2-41.9-6.2-95.1 36.3-119.9 17.5-10.3 38.5-14.9 59.1-19.3 30.2-6.4 61-12.7 88.3-25.7 28.2-13.5 61.6-39.5 56-69.3-6-32.1-10.8-60.1 18.4-86.1z"/>
	<path id="Layer" class="s0" d="m833.4 715c-60.5 0-109.4-3.1-109.4-7 0-3.9 48.9-7 109.4-7 60.6 0 109.5 3.1 109.5 7 0 3.9-48.9 7-109.5 7z"/>
	<path id="Layer" class="s0" d="m548.9 668c-60.5 0-109.4-3.1-109.4-7 0-3.9 48.9-7 109.4-7 60.6 0 109.5 3.1 109.5 7 0 3.9-48.9 7-109.5 7z"/>
	<path id="Layer" class="s0" d="m147.1 779.4c-60.6 0-109.5-3.1-109.5-7 0-3.9 48.9-7 109.5-7 60.5 0 109.4 3.1 109.4 7 0 3.9-48.9 7-109.4 7z"/>
	<path id="Layer" class="s0" d="m355.1 786.3c-24.9 0-45.1-1.3-45.1-2.9 0-1.6 20.2-2.9 45.1-2.9 24.9 0 45 1.3 45 2.9 0 1.6-20.1 2.9-45 2.9z"/>
	<path id="Layer" class="s0" d="m1030 711.2c-19.4 0-35.1-1-35.1-2.2 0-1.3 15.7-2.3 35.1-2.3 19.4 0 35.1 1 35.1 2.3 0 1.2-15.7 2.2-35.1 2.2z"/>
	<path id="Layer" class="s0" d="m707.9 664c-16.5 0-29.8-0.8-29.8-1.9 0-1.1 13.3-1.9 29.8-1.9 16.4 0 29.7 0.8 29.7 1.9 0 1.1-13.3 1.9-29.7 1.9z"/>
	<path id="Layer" class="s1" d="m1035 655c0 0 4.8 6.1-2.1 15.4-6.9 9.3-12.6 17.1-10.3 22.9 0 0 10.4-17.2 18.8-17.5 8.5-0.2 2.9-10.4-6.4-20.8z"/>
	<path id="Layer" class="s2" d="m1035 655q0.2 0.2 0.4 0.4 0.1 0.3 0.2 0.5 0.1 0.3 0.3 0.5 0.1 0.3 0.1 0.5c8.3 9.7 12.7 18.7 4.8 18.9-7.4 0.2-16.3 13.4-18.4 16.8q0 0.1 0.1 0.2 0 0 0 0.1 0.1 0.1 0.1 0.2 0 0.1 0.1 0.2c0 0.1 10.3-17.2 18.8-17.5 8.4-0.2 2.8-10.4-6.5-20.8z"/>
	<path id="Layer" class="s3" d="m1043.8 662.8c0 2.2-0.2 3.9-0.5 3.9-0.3 0-0.6-1.7-0.6-3.9 0-2.1 0.3-1.1 0.6-1.1 0.3 0 0.5-1 0.5 1.1z"/>
	<path id="Layer" class="s3" d="m1046.8 665.4c-1.9 1-3.5 1.7-3.7 1.4-0.2-0.3 1.3-1.3 3.2-2.4 1.9-1 1.1-0.2 1.3 0 0.1 0.3 1.1 0-0.8 1z"/>
	<path id="Layer" class="s1" d="m1010.2 655c0 0-4.7 6.1 2.2 15.4 6.9 9.3 12.5 17.1 10.3 22.9 0 0-10.4-17.2-18.8-17.5-8.5-0.2-2.9-10.4 6.3-20.8z"/>
	<path id="Layer" class="s2" d="m1010.2 655q-0.1 0.2-0.3 0.4-0.1 0.3-0.2 0.5-0.2 0.3-0.3 0.5-0.1 0.3-0.2 0.5c-8.2 9.7-12.6 18.7-4.7 18.9 7.4 0.2 16.2 13.4 18.4 16.8q-0.1 0.1-0.1 0.2 0 0-0.1 0.1 0 0.1 0 0.2-0.1 0.1-0.1 0.2c0 0.1-10.4-17.2-18.8-17.5-8.4-0.2-2.8-10.4 6.4-20.8z"/>
	<path id="Layer" class="s3" d="m1001.5 662.8c0 2.2 0.2 3.9 0.5 3.9 0.3 0 0.6-1.7 0.6-3.9 0-2.1-0.3-1.1-0.6-1.1-0.3 0-0.5-1-0.5 1.1z"/>
	<path id="Layer" class="s3" d="m998.5 665.4c1.9 1 3.6 1.7 3.7 1.4 0.1-0.3-1.3-1.3-3.2-2.4-1.9-1-1.1-0.2-1.3 0-0.1 0.3-1.1 0 0.8 1z"/>
	<path id="Layer" class="s4" d="m1003 692.5c0 0 13.2-0.4 17.1-3.2 4-2.8 20.3-6.2 21.2-1.7 1 4.5 19.8 22.5 5 22.6-14.9 0.2-34.5-2.3-38.5-4.7-3.9-2.4-4.8-13-4.8-13z"/>
	<path id="Layer" class="s5" d="m1046.5 708.7c-14.9 0.1-34.5-2.4-38.5-4.8-3-1.8-4.2-8.4-4.6-11.4h-0.4c0 0 0.8 10.6 4.8 13 3.9 2.4 23.6 4.8 38.4 4.7 4.3 0 5.8-1.6 5.7-3.8-0.6 1.4-2.2 2.2-5.4 2.3z"/>
	<path id="Layer" class="s1" d="m713.1 615.9c0 0 4 5.3-1.8 13.2-5.9 8-10.8 14.7-8.8 19.6 0 0 8.9-14.7 16.1-15 7.2-0.2 2.4-8.9-5.5-17.8z"/>
	<path id="Layer" class="s2" d="m713.1 615.9q0.2 0.2 0.3 0.4 0.1 0.2 0.2 0.4 0.1 0.2 0.2 0.4 0.1 0.3 0.2 0.5c7 8.2 10.7 16 4 16.2-6.3 0.1-13.9 11.4-15.7 14.3q0 0.1 0 0.1 0 0.1 0.1 0.2 0 0.1 0 0.2 0.1 0 0.1 0.1c0 0.1 8.9-14.7 16.1-15 7.2-0.3 2.4-8.9-5.5-17.8z"/>
	<path id="Layer" class="s3" d="m720.6 622.6c0 1.9-0.2 3.4-0.5 3.4-0.2 0-0.4-1.5-0.4-3.4 0-1.8 0.2-1 0.5-1 0.2 0 0.4-0.8 0.4 1z"/>
	<path id="Layer" class="s3" d="m723.2 624.8c-1.7 0.9-3 1.5-3.2 1.2-0.2-0.2 1.1-1.1 2.7-2 1.6-0.8 1-0.2 1.1 0 0.1 0.3 1-0.1-0.6 0.8z"/>
	<path id="Layer" class="s1" d="m691.9 615.9c0 0-4 5.3 1.8 13.2 5.9 8 10.8 14.7 8.8 19.6 0 0-8.9-14.7-16.1-15-7.2-0.2-2.5-8.9 5.5-17.8z"/>
	<path id="Layer" class="s2" d="m691.9 615.9q-0.1 0.2-0.3 0.4-0.1 0.2-0.2 0.4-0.1 0.2-0.2 0.4-0.1 0.3-0.1 0.5c-7 8.2-10.8 16-4 16.2 6.3 0.1 13.8 11.4 15.6 14.3q0 0.3-0.2 0.6c0 0-8.8-14.7-16.1-15-7.2-0.3-2.5-8.9 5.5-17.8z"/>
	<path id="Layer" class="s3" d="m684.4 622.6c0 1.9 0.2 3.4 0.5 3.4 0.2 0 0.4-1.5 0.4-3.4 0-1.8-0.2-1-0.5-1-0.2 0-0.4-0.8-0.4 1z"/>
	<path id="Layer" class="s3" d="m681.8 624.8c1.7 0.9 3 1.5 3.2 1.2 0.2-0.2-1.1-1.1-2.7-2-1.6-0.8-1-0.2-1.1 0-0.1 0.3-1-0.1 0.6 0.8z"/>
	<path id="Layer" class="s4" d="m685.7 648c0 0 11.2-0.3 14.6-2.7 3.4-2.4 17.3-5.3 18.2-1.5 0.8 3.9 16.8 19.3 4.2 19.4-12.7 0.1-29.5-2-32.9-4-3.4-2-4.1-11.2-4.1-11.2z"/>
	<path id="Layer" class="s5" d="m722.9 661.8c-12.7 0.2-29.5-2-32.9-4-2.6-1.5-3.6-7.2-3.9-9.8h-0.4c0 0 0.7 9.1 4.1 11.2 3.4 2 20.2 4.1 32.9 4 3.6 0 4.9-1.4 4.8-3.3-0.5 1.2-1.9 1.9-4.6 1.9z"/>
	<g id="Layer" style="opacity: .8">
		<path id="Layer" class="s6" d="m130.8 621.8c30.2 0 57.5 18.2 69 46.1 11.6 28 5.2 60.1-16.2 81.5-21.4 21.4-53.5 27.8-81.5 16.2-27.9-11.5-46.1-38.8-46.1-69 0-9.9 1.9-19.6 5.7-28.7 3.7-9 9.2-17.3 16.2-24.2 6.9-7 15.2-12.5 24.2-16.3 9.1-3.7 18.9-5.6 28.7-5.6z"/>
		<path id="Layer" fill-rule="evenodd" class="s7" d="m130.8 776.6c-32.4 0-61.6-19.5-74-49.5-12.3-29.9-5.5-64.3 17.4-87.2 23-22.9 57.4-29.8 87.3-17.4 30 12.4 49.5 41.6 49.5 74 0 10.5-2.1 21-6.1 30.7-4.1 9.7-10 18.5-17.4 26-7.5 7.4-16.3 13.3-26 17.3-9.8 4.1-20.2 6.1-30.7 6.1zm67.6-69.1q-5.2-1.5-10.5-2.5-5.3-0.9-10.7-1.3-5.4-0.4-10.8-0.2-5.3 0.2-10.7 1 2.2 5.9 4.1 12 2 6 3.6 12.1 1.7 6.1 3.1 12.3 1.4 6.1 2.5 12.4c3.9-2.6 7.5-5.6 10.8-8.9 3.3-3.4 6.2-7 8.7-11 2.5-3.9 4.6-8.1 6.3-12.4 1.6-4.4 2.9-8.9 3.6-13.5zm-40.9 52.1q-1.2-6.6-2.7-13.2-1.5-6.6-3.3-13.1-1.9-6.5-4-12.9-2.1-6.4-4.6-12.7 0 0.1-0.1 0.1 0 0-0.1 0 0 0-0.1 0 0 0-0.1 0c-38.7 13.5-52.5 40.3-53.8 42.8q4.5 3.5 9.5 6.2 5 2.7 10.3 4.5 5.4 1.8 11 2.8 5.6 0.9 11.2 0.9 3.5 0 6.9-0.3 3.4-0.3 6.8-1 3.4-0.7 6.7-1.7 3.2-1 6.4-2.4zm-77.6-17.2c1.5-2.7 20.3-33.7 55.7-45.2 0.8-0.3 1.8-0.6 2.7-0.8-1.7-3.9-3.6-7.8-5.6-11.6-34.2 10.2-67.4 9.8-70.4 9.7 0 0.7-0.1 1.4-0.1 2.1q0 6.3 1.2 12.5 1.1 6.1 3.4 12 2.3 5.9 5.5 11.2 3.3 5.4 7.6 10.1zm-16.2-59.8q8 0 16-0.6 8-0.5 15.9-1.6 8-1 15.8-2.5 7.9-1.6 15.6-3.6-2.9-5.1-5.9-10.2-3.1-5-6.2-9.9-3.2-5-6.5-9.8-3.3-4.9-6.8-9.7c-4.7 2.3-9.3 5.1-13.4 8.4-4.1 3.2-7.9 7-11.2 11.1-3.2 4.2-6 8.7-8.3 13.4-2.2 4.8-3.9 9.8-5 15zm51-52.5q0 0 0 0 0 0 0 0zm6.9 9.6q3.3 4.9 6.5 9.9 3.2 5 6.3 10.1 3 5.2 5.9 10.4c24.3-9.2 34.6-23 35.9-24.7q-4.7-4.2-10-7.4-5.3-3.2-11.2-5.4-5.8-2.2-11.9-3.3-6.1-1.2-12.4-1.1-2 0-4 0.1-2 0.1-4 0.4-2 0.2-4 0.6-2 0.3-4 0.8 3.5 4.8 6.9 9.6zm62.1 13.6c-1.4 2-12.9 16.7-38.2 27 1.6 3.3 3.2 6.6 4.6 9.9q0.7 1.8 1.5 3.5c22.8-2.9 45.4 1.8 47.7 2.2q-0.1-5.8-1.1-11.5-1.1-5.7-3-11.1-2-5.5-4.9-10.5-2.9-5-6.6-9.5z"/>
	</g>
	<path id="Layer" class="s8" d="m316.2 468.3c-1.8-2.3-3.8-17.9-3.8-17.9l-8-39.8-4.2-22.9c0 0-1-28.9-19.1-43.3l-1.4-1.1q0-0.4 0-0.8-0.1-1-0.2-2.1-0.2-1-0.4-2-0.2-1-0.5-2-0.3-1-0.7-2-0.2-0.3-0.3-0.7-0.1-0.3-0.2-0.6-0.1-0.4-0.1-0.7-0.1-0.4-0.1-0.8 0-0.1 0.1-0.2 0-0.2 0.1-0.3 0-0.1 0.1-0.3 0-0.1 0.1-0.2 0.3-0.4 0.7-0.8 0.3-0.4 0.8-0.8 0.4-0.3 0.8-0.6 0.5-0.3 1-0.6c3.2-2 6-5.1 6.8-8.8q0-0.1 0-0.1 0 0 0-0.1 0 0 0 0 0 0 0-0.1c0-0.1 0-0.3 0.1-0.5 0-0.2 0-0.2 0-0.3q0 0 0-0.1 0-0.1 0-0.1 0-0.1 0-0.2 0 0 0-0.1v-0.2q0-0.3 0-0.6 0 0 0-0.1 0 0 0 0 0 0 0 0 0 0 0-0.1c0-0.2-0.1-0.4-0.1-0.7q-0.2-1-0.5-2-0.4-0.9-1-1.7-0.6-0.9-1.4-1.5-0.8-0.7-1.8-1.1 0.4-0.1 0.7-0.2 0.3-0.2 0.6-0.4 0.2-0.2 0.4-0.5 0.2-0.3 0.4-0.6 0-0.1 0.1-0.2 0-0.1 0.1-0.2 0-0.1 0-0.2 0.1-0.1 0.1-0.2 0-0.1 0-0.1 0-0.1 0.1-0.2 0-0.1 0-0.2 0-0.1 0-0.2c0-0.1 0-0.1 0-0.1q0-0.1 0-0.2 0-0.1 0-0.2 0-0.1 0-0.1 0-0.1 0-0.2 0-0.1 0-0.2 0-0.1 0-0.2 0-0.1 0-0.1-0.1-0.1-0.1-0.2 0-0.1 0-0.2 0 0 0 0 0 0 0 0 0-0.1 0-0.1 0 0 0 0l-0.1-0.2c-0.7-1.9-2.2-3.4-3.6-4.9-7.9-8.9-9.4-21.3-11.6-32.8-1.2-6.4-3.4-13.7-9.6-16.2q-0.7-0.2-1.4-0.4-0.6-0.2-1.3-0.3-0.7-0.2-1.3-0.3-0.7-0.2-1.4-0.3c-5.5-1.5-10-5.3-15.4-7.2q-1.3-0.5-2.7-0.8-1.4-0.3-2.9-0.4-1.4-0.1-2.8 0-1.5 0-2.9 0.2c-2.9 0.5-5.3 1.9-8.1 2.6-6 1.5-13.2-0.2-18 4.7-3.3 3.4-3.5 8.5-5.2 12.9-3 8.1-11 14.1-13.1 22.5-1.3 5.5 0 11 1.5 16.5q0.4 1.4 0.7 2.8 0.4 1.4 0.7 2.8 0.2 1.4 0.4 2.9 0.2 1.4 0.4 2.8 0 0.4 0 0.8 0 0.3 0 0.7 0 0.3 0 0.7 0 0.4 0 0.7-0.1 1.1-0.3 2.1-0.1 1.1-0.4 2.1-0.2 1-0.5 2.1-0.3 1-0.7 1.9c-6.8 2.5-13.8 5.5-14.3 7.2-1 3.2-17.3 12.5-17.3 12.5 0 0-6.2 5.3-6.2 7.3 0 2.1-2.1 8.4-3.4 8.4-1.3 0-3.8 25.4-3.8 25.4v26.4c0 0-9.6 31.3-11.8 58.9 0 0-3.8 17.7 2.5 27.9q0.3 0.5 0.6 1 0.4 0.5 0.8 0.9 0.4 0.5 0.8 0.9 0.4 0.4 0.9 0.8l3.2 8.4q0.4-0.7 0.9-1.3 0.5-0.7 1-1.3 0.5-0.7 1.1-1.3 0.6-0.5 1.3-1.1 0.2 1.6 0.5 3.7c0.3 1.7 0.6 3.6 1 5.7-2 3.2-6.8 9.7-12.6 12.2-5.4 2.2 1.6 8.2 6.4 11.7-1.3 6.4-3.1 14.2-4.6 15.2-2.6 1.8-10.9 23.9-10.9 23.9 0 0-16.2 38 7.2 42.3 23.3 4.3 35.3-5.8 35.3-5.8h5.6c0 0 6.8-3.8 7-11.7 3.8-3.2 9.6-8.2 10.8-10.2 1.2-2-2.1-8.5-4.2-12.1l0.6-1c0 0 22.2-28.4 25.1-25.4 2.8 3 4.6 7.8 3.3 10.8l1.2 17.4v27.2c0 0-3.2 12.4 0 13.6 3.2 1.3 0 6 0 6 0 0 1.2 5.6 1.4 7.3q0.1 0.9 0.1 1.7 0 0.9 0 1.7 0 0.9 0 1.7 0 0.9-0.1 1.7l-1 27.2-2.1 40.3c0 0-2.3 3.3-0.5 5.5 1.8 2.3 1 7.6 0.5 8.6-0.5 1-0.8 9.3-0.8 9.3 0 0-7.5 7.8-1.5 9.8l0.2 0.1c-2.4 2.3-2.5 7.4-2.3 9 0.2 1.6-1.6 8-2.9 11.7q-0.1 0.3-0.2 0.6-0.2 0.4-0.3 0.7-0.2 0.3-0.3 0.6-0.2 0.3-0.4 0.6c-0.9 0.7 0 7.7 0 7.7 0 0 29 2.4 31.5 0 1-0.9 0.7-3.2 0-5.8q-0.4-1.4-0.9-2.8-0.4-1.4-1-2.8-0.6-1.3-1.2-2.7-0.6-1.3-1.3-2.6c-1.7-3.2-0.9-7.2-0.9-7.2v-3c2 0.3 3.2 0.5 3.2 0.5 0 0 3.7-3 2.1-5.8-1.5-2.8 2.8-18.4 2.8-18.4 0 0 5-17.6 5-19.4 0-1.7 6.4-24.6 6.4-24.6 0 0 9.6-40.6 4.9-59.7 0 0 4.2-4.8 3.6-6-0.5-1.2-1.7-6.5 0.1-8.8 1.8-2.3 9.2-30.5 11.3-35.3 1-2.2 3.3-8.3 5.6-14.2 10.3-1.6 22.6-4.4 22.6-4.4 0 0-1.9-7.8-3.2-15.7l1.1-5.5 0.4-1.9q0.3 0.3 0.7 0.7 0.3 0.3 0.6 0.7 0.3 0.4 0.6 0.8 0.3 0.4 0.5 0.8l2.1-10.1c0 0 0.2-0.3 0.6-1 2.4-3.7 11.2-17.3 15.4-21.4 4.9-4.9 1.9-26.5 0-28.8z"/>
	<path id="Layer" class="s9" d="m225 299.8h28.5v32h-28.5z"/>
	<path id="Layer" class="s2" d="m225 299.8h28.5v32h-28.5z"/>
	<path id="Layer" class="s10" d="m183.3 575.6c0 0 7.2 11.5 5.5 14.5-1.8 3-13.8 12.7-13.8 12.7l-3.5-24z"/>
	<path id="Layer" class="s11" d="m160.8 612.6l5.3-0.8h5.4c0 0 7.2-4.1 6.8-12.7-0.4-8.6 0-17 0-17z"/>
	<path id="Layer" class="s2" d="m160.8 612.6l5.3-0.8h5.4c0 0 7.2-4.1 6.8-12.7-0.4-8.6 0-17 0-17z"/>
	<path id="Layer" class="s11" d="m171.5 495.3l-30 33c0 0-3.5 21.8-6 23.5-2.5 1.8-10.4 23.8-10.4 23.8 0 0-15.8 37.7 6.8 42 22.6 4.2 34.2-5.8 34.2-5.8l19.1-34.7c0 0 21.6-28.3 24.3-25.3 2.8 3 4.5 7.8 3.3 10.8l1.1 17.2v27c0 0-3 12.3 0 13.5 3.1 1.3 0 6 0 6 0 0 1.2 5.5 1.4 7.3 0.2 1.7 0 6.7 0 6.7l-1 27-2 40c0 0-2.2 3.3-0.5 5.5 1.8 2.3 1 7.5 0.5 8.5-0.5 1-0.7 9.3-0.7 9.3 0 0-7.3 7.7-1.5 9.7 5.7 2 22.5 4.5 22.5 4.5 0 0 3.5-3 2-5.7-1.5-2.8 2.7-18.3 2.7-18.3 0 0 4.8-17.5 4.8-19.2 0-1.8 6.2-24.5 6.2-24.5 0 0 9.3-40.3 4.8-59.3 0 0 4-4.7 3.5-6-0.5-1.2-1.7-6.5 0-8.7 1.6-2.3 9-30.3 11-35 2-4.8 10.5-27.8 10.5-27.8v-42.5z"/>
	<path id="Layer" class="s12" d="m261.1 344.6l-17.3 32.6-4.6 8.6-0.7 1.3-44.5 1.7c0 0-1.2-2.8-3-7.1-3.1-7.6-7.8-19.8-10.2-30.1q-0.2-0.9-0.4-1.9-0.2-0.9-0.4-1.8-0.1-1-0.3-1.9-0.1-1-0.2-1.9c-0.7-6.3 0.3-10.7 4.3-11.1q0.4 0 0.8 0 0.4 0 0.8 0 0.3 0.1 0.7 0.1 0.4 0.1 0.7 0.2 1.1 0.3 2.1 0.5 1.1 0.3 2.2 0.4 1.1 0.1 2.2 0.1 1 0 2.1-0.1c10.6-1.3 13.7-12.5 14.2-23 0-0.7 0.1-1.4 0.1-2.2 0-2.2 0-4.4-0.2-6.5q-0.1-1.2-0.2-2.5-0.1-1.3-0.2-2.6-0.2-1.3-0.4-2.5-0.1-1.3-0.4-2.6 1-0.5 2-0.9 1.1-0.4 2.1-0.8 1-0.4 2.1-0.7 1-0.3 2.1-0.6c8.4-2.2 20.3-2.1 20.5 15.3q0 1.4 0.1 2.9 0 1.4 0.2 2.8 0.1 1.5 0.3 2.9 0.2 1.4 0.5 2.9 0.2 0.8 0.4 1.6 0.2 0.8 0.5 1.5 0.3 0.8 0.6 1.6 0.3 0.7 0.7 1.5c2.9 5.6 7 6.2 8.9 6.1q0.1 0 0.3 0 0.1 0 0.2 0 0.1 0 0.3 0 0.1 0 0.2-0.1z"/>
	<path id="Layer" class="s2" d="m216.6 363.5q0.3 0.6 0.4 1.3 0.2 0.7 0.3 1.4 0.1 0.7 0.2 1.4 0.1 0.7 0.1 1.4 0 0.7 0.1 1.5 0 0.7 0 1.4-0.1 0.8-0.1 1.5-0.1 0.8-0.2 1.5-0.1 0.7-0.3 1.4-0.3 0.8-0.6 1.4-0.4 0.7-0.8 1.3-0.5 0.5-1.1 1"/>
	<path id="Layer" class="s2" d="m229.2 318.6c-14.8 0-26.7-12-26.7-26.8 0-14.7 11.9-26.7 26.7-26.7 14.8 0 26.8 12 26.8 26.8 0 14.7-12 26.7-26.8 26.7z"/>
	<path id="Layer" class="s12" d="m256 290.8c0 5.4-1.7 10.7-4.7 15.1-3 4.5-7.3 7.9-12.3 9.9-5 1.9-10.5 2.3-15.7 1.1-5.3-1.2-10-3.9-13.7-7.9q-0.1 0-0.2-0.1 0-0.1-0.1-0.2-0.1-0.1-0.2-0.2-0.1-0.1-0.2-0.2c-5.7-6.6-7.8-15.7-5.6-24.1 2.2-8.5 8.4-15.4 16.6-18.4 8.2-3.1 17.4-1.9 24.6 3.1 7.2 5 11.5 13.2 11.4 21.9z"/>
	<path id="Layer" class="s2" d="m186.3 357.6c0 0 9.5 24.7 29.5 20.7 0 0 20.2 1.6 31.7-13.2 11.6-14.9 12.3 85 12.3 85l-4.5 66.2c0 0-32.3 19.3-46.3 16.8-14-2.5-20.7-10-20.7-10 0 0-14.8-13.8-18.8-15.5-4-1.8 1.8-87 1.8-87l4.7-32z"/>
	<path id="Layer" class="s13" d="m186.3 355.6c0 0 9.5 24.7 29.5 20.7 0 0 20.2 1.6 31.7-13.2 11.6-14.9 12.3 85 12.3 85l-4.5 66.2c0 0-32.3 19.3-46.3 16.8-14-2.5-20.7-10-20.7-10 0 0-14.8-13.8-18.8-15.5-4-1.8 1.8-87 1.8-87l4.7-32z"/>
	<path id="Layer" class="s2" d="m185.3 495.3c0 0 21.5 24 20.2 26.5-1.2 2.5-20.7-19.2-20.2-26.5z"/>
	<path id="Layer" class="s2" d="m181.6 435.6c0 0 6.8 9.6 11.2 8.6"/>
	<path id="Layer" class="s2" d="m196.4 333.3c0 0 0 0.3 0 0.9-0.3 3-1.1 14.2-2.3 26.6-0.6 7-1.4 14.3-2.1 20.9-1.3 10.6-2.6 19.2-3.7 20.4-3.3 3.5-2 36.5-2 36.5v41.7c0 0-2.8 13.3-5 16.3-2.3 3-7.8 14.2-12.2 15.7q-0.6 0.3-1.2 0.7-0.5 0.4-1 0.8-0.5 0.4-1 0.9-0.5 0.4-0.9 0.9c-4 4-9.7 10.7-14 15.9-3.6 4.4-6.3 7.8-6.3 7.8 0 0-17.5-11-10-14.2 5.6-2.5 10.3-9 12.2-12 0.7-1 1-1.7 1-1.7q0.2-0.9 0.3-1.8 0.2-0.8 0.4-1.7 0.2-0.9 0.4-1.7 0.3-0.9 0.5-1.7 0.3-0.8 0.6-1.6 0.3-0.8 0.6-1.5 0.3-0.8 0.7-1.5 0.4-0.7 0.9-1.4 0.3-0.6 0.8-1.1 0.4-0.5 1-0.9 0.5-0.4 1.1-0.7 0.6-0.3 1.2-0.4c6.5-1.3 9.8-63 9.8-63l-20-43.7-2-4.3c0 0 2.5-25.3 3.7-25.3 1.3 0 3.3-6.2 3.3-8.2 0-2 6-7.3 6-7.3 0 0 15.9-9.3 16.9-12.5 0.5-1.7 7.8-4.8 14.5-7.4 6.1-2.2 11.8-4.1 11.8-4.1 3.3 5.1-4 13.7-4 13.7z"/>
	<path id="Layer" class="s10" d="m195.4 333.3c0 0 0 0.3 0 0.9-0.3 3-1.1 14.2-2.3 26.6-0.6 7-1.4 14.3-2.1 20.9-1.3 10.6-2.6 19.2-3.7 20.4-3.3 3.5-2 36.5-2 36.5v41.7c0 0-2.8 13.3-5 16.3-2.3 3-7.8 14.2-12.2 15.7q-0.6 0.3-1.2 0.7-0.5 0.4-1 0.8-0.5 0.4-1 0.9-0.5 0.4-0.9 0.9c-4 4-9.7 10.7-14 15.9-3.6 4.4-6.3 7.8-6.3 7.8 0 0-17.5-11-10-14.2 5.6-2.5 10.3-9 12.2-12 0.7-1 1-1.7 1-1.7q0.2-0.9 0.3-1.8 0.2-0.8 0.4-1.7 0.2-0.9 0.4-1.7 0.3-0.9 0.5-1.7 0.3-0.8 0.6-1.6 0.3-0.8 0.6-1.5 0.3-0.8 0.7-1.5 0.4-0.7 0.9-1.4 0.3-0.6 0.8-1.1 0.4-0.5 1-0.9 0.5-0.4 1.1-0.7 0.6-0.3 1.2-0.4c6.5-1.3 9.8-63 9.8-63l-20-43.7-2-4.3c0 0 2.5-25.3 3.7-25.3 1.3 0 3.3-6.2 3.3-8.2 0-2 6-7.3 6-7.3 0 0 15.9-9.3 16.9-12.5 0.5-1.7 7.8-4.8 14.5-7.4 6.1-2.2 11.8-4.1 11.8-4.1 3.3 5.1-4 13.7-4 13.7z"/>
	<path id="Layer" class="s2" d="m294.9 390.8l-21.6 25.3c0 0 18.7 97.2 16.5 101.7q-0.1 0.2-0.1 0.3-0.1 0.2-0.1 0.3-0.1 0.2-0.1 0.3 0 0.2 0 0.3-0.1 0.9-0.2 1.8 0 0.8 0 1.7 0 0.9 0.1 1.8 0.1 0.8 0.2 1.7c0.2 2.5 0.6 5.2 1.1 7.9 1.3 7.9 3.1 15.6 3.1 15.6 0 0-25.3 6-33 5.3-7.8-0.8-3.3-13.3-2-19 1.2-5.8-8.5-13.8-8.5-13.8l-13.8-56.5c0 0-1-12.5-4-18.5-3-6-0.2-12.5-1.2-21-0.7-6 3.6-27.7 6.9-40.3 1.3-4.8 2.4-8.2 3-9.1q0 0 0 0 0.1 0 0.1 0 0 0 0 0 0-0.1 0-0.1c2-1.7 0-12 0-12 0 0 4.8-27 4.3-29.2-0.3-1.3 1.3-4.4 2.7-6.9 1-1.9 2-3.4 2-3.4 0 0 9.7 6.2 26.3 19.6l1.5 1.2c17.5 14.2 18.5 43 18.5 43z"/>
	<path id="Layer" class="s10" d="m295.9 390.8l-21.6 25.3c0 0 18.7 97.2 16.5 101.7q-0.1 0.2-0.1 0.3-0.1 0.2-0.1 0.3-0.1 0.2-0.1 0.3 0 0.2 0 0.3-0.1 0.9-0.2 1.8 0 0.8 0 1.7 0 0.9 0.1 1.8 0.1 0.8 0.2 1.7c0.2 2.5 0.6 5.2 1.1 7.9 1.3 7.9 3.1 15.6 3.1 15.6 0 0-25.3 6-33 5.3-7.8-0.8-3.3-13.3-2-19 1.2-5.8-8.5-13.8-8.5-13.8l-13.8-56.5c0 0-1-12.5-4-18.5-3-6-0.2-12.5-1.2-21-0.7-6 3.6-27.7 6.9-40.3 1.3-4.8 2.4-8.2 3-9.1q0 0 0 0 0.1 0 0.1 0 0 0 0 0 0-0.1 0-0.1c2-1.7 0-12 0-12 0 0 4.8-27 4.3-29.2-0.3-1.3 1.3-4.4 2.7-6.9 1-1.9 2-3.4 2-3.4 0 0 9.7 6.2 26.3 19.6l1.5 1.2c17.5 14.2 18.5 43 18.5 43z"/>
	<path id="Layer" class="s2" d="m250.3 404.3c-0.3 2 6 108.3 12.5 114.5z"/>
	<path id="Layer" class="s12" d="m166 552.1c-7 4.4-12.4-7.2-16-20.5-1.7-6.3-3-13-4-18.6q-0.6-3.1-0.9-5.7c-0.7-4.4-1-7.4-1-7.4l7.3-1.4 8.2-1.7 1 9.2 0.4 4.2c0 0 1.3 2.1 3 5.4 4.9 9.7 13.1 29.6 2 36.5z"/>
	<path id="Layer" class="s12" d="m294.5 519.9l-1.7 8.6-1.1 5.4-0.1 0.3c0 0-21.8 29.6-28.8 17.4-5.4-9.4 7.7-24.7 14.1-31.4 2-2.1 3.4-3.4 3.4-3.4l10.2 2.2z"/>
	<path id="Layer" class="s10" d="m234.5 771.1c-2.3 2.4-30.5 0-30.5 0 0 0-0.8-7 0-7.6q0.2-0.3 0.4-0.7 0.2-0.3 0.3-0.6 0.2-0.3 0.3-0.7 0.1-0.3 0.2-0.6c1.3-3.7 3-10 2.8-11.6-0.2-2.1-0.1-10.6 5.7-10 0 0 7.5-15.2 15.7 3.5v4.5q-0.1 0.9-0.2 1.8 0 0.9 0.1 1.9 0.1 0.9 0.4 1.7 0.2 0.9 0.6 1.7 0.6 1.4 1.3 2.7 0.6 1.3 1.1 2.7 0.5 1.3 1 2.7 0.5 1.4 0.9 2.8c0.7 2.6 0.9 4.8-0.1 5.8z"/>
	<path id="Layer" class="s13" d="m234.5 771.1c-2.3 2.4-30.5 0-30.5 0 0 0-0.8-7 0-7.6q0.2-0.3 0.4-0.7 0.2-0.3 0.3-0.6 0.2-0.3 0.3-0.7 0.1-0.3 0.2-0.6c3.7-1.6 8.8-3.2 12.3-1.8 4.5 1.7 12.8 4.7 17 6.2 0.8 2.6 1 4.8 0 5.8z"/>
	<path id="Layer" class="s2" d="m209.5 311.3c0.7 2.8 1.7 5.7 1.8 8.6 0 4-1.7 7.9-3.5 11.5-2.1 4.1-4.5 8.5-3.8 13.1q0.1 0.6 0.3 1.3 0.2 0.6 0.3 1.3 0.2 0.6 0.4 1.2 0.2 0.7 0.5 1.3 0.5 2 0.7 4 0.2 2.1 0.1 4.2-0.2 2.1-0.8 4-0.5 2-1.4 3.9c-1.7 3.3-5 6.5-8.6 5.4-0.3-3.5-0.7-7.3-2.4-10.3q-0.3-0.5-0.6-0.9-0.3-0.5-0.6-0.9-0.3-0.3-0.7-0.7-0.4-0.4-0.8-0.7c-2.6-2-6.2-2.4-8.5-4.7q-0.2-0.1-0.3-0.3-0.2-0.1-0.3-0.3-0.2-0.2-0.3-0.4-0.1-0.1-0.3-0.3-0.4-0.7-0.7-1.5-0.3-0.8-0.5-1.6-0.1-0.8-0.2-1.7 0-0.8 0.1-1.7c0-0.3 0-0.6 0.1-1q0.2-0.9 0.4-1.8 0.2-0.9 0.5-1.7 0.4-0.9 0.7-1.8 0.4-0.8 0.8-1.7 0.9-2 1.9-4 0.6-1.1 1.1-2.2 0.5-1.2 1-2.3 0.5-1.2 0.9-2.4 0.4-1.1 0.8-2.3c6.1-2.3 11.8-4.2 11.8-4.2 3.3 5-4 13.7-4 13.7 0 0 0 0.3 0 0.9 10.5-1.4 13.7-12.6 14.1-23.1z"/>
	<path id="Layer" class="s2" d="m224.5 273.6c-2.9 1-5.7 2.8-7 5.6-1.4 3.1-0.7 6.7-1 10.1q0 0.3-0.1 0.5 0 0.3-0.1 0.6 0 0.3-0.1 0.5 0 0.3-0.1 0.6c-1.3 4.1-5.1 7-6.7 11q-0.1 0.5-0.3 1-0.1 0.6-0.2 1.2-0.1 0.6-0.1 1.2-0.1 0.6 0 1.2 0 0.6 0.1 1.2c-7.3-8.5-8.5-20.7-3-30.5 5.5-9.8 16.5-15.1 27.6-13.3 11.1 1.8 19.9 10.4 22 21.4 2 11.1-3 22.2-12.7 28 1.1-3.4 2.3-6.8 3.3-10.2 2.1-8.1 2.5-17.4-2.6-24.1q-1.7-2.1-3.9-3.6-2.1-1.5-4.7-2.3-2.5-0.8-5.2-0.8-2.6 0-5.2 0.7z"/>
	<path id="Layer" class="s2" d="m276.8 354.6c-0.9 3.2-3.2 6.7-6.5 6.5-1.5 0-3-1-4.5-1.1-2.3-0.2-4.4 1.2-5.7 3q-0.5 0.7-0.9 1.4-0.4 0.8-0.8 1.5-0.4 0.7-0.8 1.5-0.3 0.8-0.7 1.5c-2.4 4.8-7.3 9.1-12.6 8.4l-0.5-0.1q-0.2-0.1-0.4-0.1-0.2-0.1-0.4-0.1-0.2-0.1-0.4-0.2-0.2 0-0.4-0.1c-4.8-2-7.4-8.2-7.2-13.6 0.2-6.2 2.8-12.1 3.6-18.2 0.8-5.7 0.1-11.4 0.7-17.1q0.1-0.7 0.2-1.4 0.1-0.7 0.2-1.4 0.2-0.7 0.3-1.4 0.1-0.7 0.3-1.4c2.9 5.7 7 6.3 8.9 6.2 1.1-1.9 2.1-3.4 2.1-3.4 0 0 9.6 6.2 26.2 19.6q0.2 1.2 0.2 2.5 0 1.3-0.1 2.5-0.1 1.3-0.3 2.5-0.2 1.3-0.6 2.5z"/>
	<path id="Layer" class="s9" d="m239.1 243.9c5.1 1.9 9.5 5.7 14.8 7.1q0.7 0.2 1.3 0.3 0.7 0.2 1.3 0.3 0.7 0.2 1.3 0.4 0.7 0.2 1.3 0.4c6 2.4 8.2 9.6 9.3 16 2.1 11.4 3.6 23.8 11.2 32.6 1.4 1.5 3 3 3.6 5 0.6 1.9-0.2 4.6-2.3 5 3.5 1.5 5.2 5.8 4.5 9.5-0.7 3.7-3.4 6.8-6.6 8.8-1.5 1-3.3 2-3.5 3.8q0 0.3 0 0.7 0.1 0.3 0.1 0.7 0.1 0.3 0.2 0.7 0.2 0.3 0.3 0.6 0.8 2 1.2 4.1 0.5 2.1 0.6 4.2 0.1 2.1-0.1 4.3-0.3 2.1-0.8 4.2c-0.9 3.1-3.2 6.6-6.5 6.5-1.5-0.1-3-1-4.5-1.2-2.3-0.2-4.4 1.3-5.7 3q-0.5 0.7-0.9 1.5-0.4 0.7-0.8 1.4-0.4 0.8-0.8 1.5-0.3 0.8-0.7 1.6c-2.4 4.8-7.2 9.1-12.6 8.3-6.1-0.9-9.5-8-9.3-14.1 0.2-6.2 2.8-12.1 3.7-18.2 0.7-5.7 0-11.5 0.6-17.2 0.9-8.3 4.7-16 6.8-24.1 2.2-8.1 2.5-17.4-2.6-24.1q-1.6-2.1-3.8-3.6-2.2-1.5-4.7-2.3-2.6-0.8-5.2-0.8-2.7 0-5.3 0.7c-2.9 1-5.7 2.8-7 5.6-1.6 3.8-0.2 8.3-1.4 12.3-1.3 4.4-5.7 7.5-7 12-1.5 5.4 2 10.8 2.1 16.4 0.1 4-1.7 7.9-3.5 11.5-2.1 4.1-4.5 8.5-3.8 13.1q0.2 0.6 0.4 1.3 0.1 0.6 0.3 1.3 0.2 0.6 0.4 1.2 0.2 0.7 0.4 1.3 0.6 2 0.8 4.1 0.2 2 0.1 4.1-0.2 2.1-0.8 4.1-0.5 2-1.4 3.9c-1.7 3.3-5.1 6.5-8.6 5.4-0.4-4.9-1.1-10.5-5.1-13.5-2.6-2-6.2-2.4-8.5-4.7q-0.8-0.7-1.3-1.7-0.6-0.9-0.9-1.9-0.3-1-0.4-2.1-0.1-1 0-2.1 0.2-1 0.4-2.1 0.2-1 0.5-2 0.4-1 0.8-2 0.4-1 0.9-1.9c2.8-6.2 6.3-12.4 6.7-19.2 0.6-10.3-6-20.5-3.6-30.5 2-8.4 9.8-14.3 12.7-22.4 1.6-4.4 1.8-9.5 5-12.9 4.6-4.8 11.7-3.1 17.5-4.6 2.7-0.7 5-2.1 7.8-2.5q1.4-0.3 2.8-0.3 1.4-0.1 2.8 0 1.4 0.1 2.8 0.4 1.3 0.3 2.7 0.8z"/>
	<path id="Layer" class="s2" d="m168.1 457.3c0 0 0 22.5 0 32.5 0 1.3 0 2.7-0.1 4.1-0.4 9-1.7 18.4-1.7 18.4q-0.6-0.9-1.3-1.7-0.7-0.8-1.4-1.6-0.7-0.8-1.5-1.6-0.7-0.7-1.6-1.4c-4.7-3.8-8.8-3.3-11.9-1.6q-0.5 0.3-1 0.7-0.4 0.3-0.9 0.6-0.4 0.4-0.9 0.8-0.4 0.4-0.8 0.8c-0.7-4.4-1-7.4-1-7.4l7.4-1.4q0.3-0.6 0.8-1.1 0.4-0.5 1-0.9 0.5-0.4 1.1-0.7 0.6-0.3 1.2-0.5c6.5-1.2 9.8-63 9.8-63l-20-43.6v-2.1l6.8-10.8c11.2-9.7 14 4.3 14 4.3 0 0 2 38 2 39 0 1 0 38.2 0 38.2z"/>
	<path id="Layer" class="s10" d="m166.1 455.1c0 0 0 22.5 0 32.5 0 1.3 0 2.7-0.1 4.1-0.4 9-1.7 18.4-1.7 18.4-14-19.8-23.9-1.4-23.9-1.4l-3.1-8.4q-0.5-0.4-0.9-0.8-0.4-0.4-0.8-0.8-0.4-0.5-0.7-1-0.3-0.5-0.6-1c-6.1-10.1-2.4-27.6-2.4-27.6 2.1-27.5 11.4-58.5 11.4-58.5v-26.3l6.8-10.7c11.2-9.8 16 4.2 16 4.2 0 0 0 38 0 39 0 1 0 38.3 0 38.3z"/>
	<path id="Layer" class="s2" d="m166 490.7c-0.4 9-1.7 18.4-1.7 18.4-14-19.8-23.9-1.4-23.9-1.4l-3.1-8.4q-0.5-0.4-0.9-0.8-0.4-0.4-0.8-0.8-0.3-0.5-0.7-1-0.3-0.5-0.6-1c6.5-3.6 20.9-10.2 31.7-5z"/>
	<path id="Layer" class="s10" d="m166 491.7c-0.4 9-1.7 18.4-1.7 18.4-14-19.8-23.9-1.4-23.9-1.4l-3.1-8.4q-0.5-0.4-0.9-0.8-0.4-0.4-0.8-0.8-0.3-0.5-0.7-1-0.3-0.5-0.6-1c6.5-3.6 20.9-10.2 31.7-5z"/>
	<path id="Layer" class="s14" d="m166 491.7c-0.4 9-1.7 18.4-1.7 18.4-14-19.8-23.9-1.4-23.9-1.4l-3.1-8.4q-0.5-0.4-0.9-0.8-0.4-0.4-0.8-0.8-0.3-0.5-0.7-1-0.3-0.5-0.6-1c6.5-3.6 20.9-10.2 31.7-5z"/>
	<path id="Layer" class="s2" d="m147.1 424.1c0 0 4.5 24.7 9 32 4.5 7.2-9-32-9-32z"/>
	<path id="Layer" class="s2" d="m135.5 466.1c0 0 2.8 15 8.5 16.7 5.8 1.8-8.5-16.7-8.5-16.7z"/>
	<path id="Layer" class="s2" d="m290.4 519l4.1 0.9-1.7 8.6q-0.3-0.3-0.5-0.6-0.3-0.4-0.6-0.7-0.2-0.3-0.5-0.6-0.3-0.3-0.6-0.5-1.4-1.4-3-2.4-1.6-1.1-3.3-1.8-1.8-0.8-3.6-1.2-1.9-0.4-3.8-0.5-0.8-0.1-1.6-0.1-0.9 0-1.7 0.1-0.8 0-1.7 0.1-0.8 0.1-1.6 0.3 0.3-1.3 0.6-2.6 0.3-1.3 0.6-2.6 0.2-1.3 0.4-2.6 0.1-1.3 0.3-2.6 0-0.5 0-1 0-0.5-0.1-1 0-0.5-0.2-1-0.2-0.4-0.4-0.9c-2-2.7-3-28.2-3-28.2 0 0 1.8-13 2.8-15.5 1-2.5-4.5-15.3-4.3-19.2 0.3-3.8 3.3-37.1 3.3-38.8 0-1.8 6.5-36 20-23l5.2 7.2 0.4 2-21.6 25.3c0 0 18.7 97.2 16.5 101.7q-0.1 0.2-0.1 0.3-0.1 0.2-0.1 0.3-0.1 0.2-0.1 0.3 0 0.2 0 0.3z"/>
	<path id="Layer" class="s10" d="m313.1 497.3c-4.1 4.1-12.6 17.6-14.9 21.3l-0.7 1-2 10c0 0-7-12-23.2-9q0.4-1.3 0.7-2.6 0.2-1.2 0.5-2.5 0.2-1.3 0.4-2.7 0.2-1.3 0.3-2.6 0-0.5 0-1 0-0.5 0-1-0.1-0.4-0.3-0.9-0.1-0.5-0.4-0.9c-2-2.8-3-28.3-3-28.3 0 0 1.8-13 2.8-15.5 1-2.5-4.5-15.3-4.3-19.1 0.3-3.9 3.3-37.1 3.3-38.9 0-1.7 6.5-36 20-23l5.2 7.3 4 22.7 7.8 39.5c0 0 2 15.5 3.7 17.8 1.8 2.2 4.8 23.7 0 28.4z"/>
	<path id="Layer" class="s2" d="m298.1 517.6l-0.6 1-2 10c0 0-7-12-23.2-9q0.3-1.3 0.6-2.6 0.3-1.2 0.6-2.5 0.2-1.3 0.4-2.7 0.1-1.3 0.3-2.6c5.5 0.4 16.7 1.9 23.9 8.4z"/>
	<path id="Layer" class="s10" d="m298.1 518.6l-0.6 1-2 10c0 0-7-12-23.2-9q0.3-1.3 0.6-2.6 0.3-1.2 0.6-2.5 0.2-1.3 0.4-2.7 0.1-1.3 0.3-2.6c5.5 0.4 16.7 1.9 23.9 8.4z"/>
	<path id="Layer" class="s14" d="m298.1 518.6l-0.6 1-2 10c0 0-7-12-23.2-9q0.3-1.3 0.6-2.6 0.3-1.2 0.6-2.5 0.2-1.3 0.4-2.7 0.1-1.3 0.3-2.6c5.5 0.4 16.7 1.9 23.9 8.4z"/>
	<path id="Layer" class="s2" d="m281.8 448.3c0 0 17-0.2 19.5 8.7 2.5 8.8-19.5-8.7-19.5-8.7z"/>
	<path id="Layer" class="s2" d="m278.5 473.3c0 0 28.8-1.2 27.5 11.3-1.2 12.5-27.5-11.3-27.5-11.3z"/>
	<path id="Layer" class="s2" d="m280.3 492.6c0 0 2.2-0.5 3.7 4.7 1.5 5.3-3.7-4.7-3.7-4.7z"/>
	<path id="Layer" class="s2" d="m222.1 614.8c0 0 6.8-2 10 0 3.1 2-10 0-10 0z"/>
	<path id="Layer" class="s2" d="m223.3 622.1c0 0 16.2 0.2 17.7 2 1.5 1.7-17.7-2-17.7-2z"/>
	<g id="Layer" style="opacity: .1">
		<path id="Layer" class="s15" d="m188.7 312.8c0.5-8.1-3.6-16.2-4.1-24.2-0.5 8.1 3.6 16.2 4 24.4q0 0 0 0 0 0 0 0 0.1-0.1 0.1-0.1 0 0 0-0.1z"/>
		<path id="Layer" class="s15" d="m207.8 326.4c-2.1 4-4.4 8.4-3.8 12.9 0.4-3.4 2.1-6.8 3.8-9.9 1.8-3.6 3.5-7.4 3.5-11.5q0-0.6-0.1-1.3c-0.4 3.4-1.9 6.7-3.4 9.8z"/>
		<path id="Layer" class="s15" d="m280.9 308.1q0.3 0.1 0.6 0.2 0.2 0.2 0.5 0.3 0.2 0.2 0.5 0.4 0.2 0.2 0.4 0.4 0.2-0.4 0.3-0.8 0.1-0.4 0.2-0.9 0-0.4 0-0.8-0.1-0.4-0.2-0.9c-0.1-0.2 0-0.1-0.1-0.1q-0.1 0.4-0.3 0.7-0.2 0.4-0.5 0.7-0.3 0.3-0.6 0.5-0.4 0.2-0.8 0.3z"/>
		<path id="Layer" class="s15" d="m204.1 360.7c-1.7 3.3-5.1 6.5-8.6 5.4-0.4-4.9-1.1-10.5-5.1-13.5-2.6-2-6.2-2.4-8.5-4.7q-0.6-0.5-1-1.1-0.4-0.6-0.7-1.3-0.4-0.7-0.5-1.4-0.2-0.7-0.3-1.5c0 0.2-0.1 0.3-0.1 0.5q-0.1 1.1 0 2.1 0.1 1.1 0.4 2.1 0.3 1 0.9 1.9 0.5 1 1.3 1.7c2.3 2.3 5.9 2.8 8.5 4.7 4 3 4.7 8.6 5.1 13.5 3.5 1.1 6.9-2.1 8.6-5.4q0.6-1.3 1.1-2.7 0.4-1.4 0.7-2.8 0.3-1.4 0.4-2.9 0.1-1.4 0-2.9-0.1 1.1-0.3 2.1-0.2 1.1-0.4 2.2-0.3 1-0.7 2-0.4 1-0.8 2z"/>
		<path id="Layer" class="s15" d="m285.4 317.6c-0.7 3.7-3.4 6.7-6.6 8.8-1.5 1-3.3 2-3.5 3.7q0 0.3 0 0.5 0 0.3 0 0.6 0.1 0.2 0.1 0.4 0.1 0.3 0.2 0.5 0.3-0.4 0.7-0.8 0.3-0.4 0.7-0.7 0.4-0.4 0.9-0.7 0.4-0.3 0.9-0.5c3.2-2 5.9-5.1 6.6-8.8q0.1-0.4 0.1-0.8 0-0.4 0-0.8 0-0.4 0-0.8 0-0.4-0.1-0.9 0 0.1 0 0.1 0 0 0 0.1 0 0 0 0 0 0 0 0.1z"/>
		<path id="Layer" class="s15" d="m276.8 349.6c-0.9 3.2-3.2 6.7-6.5 6.5-1.5 0-3-1-4.5-1.1-2.3-0.2-4.4 1.2-5.7 3q-0.5 0.7-0.9 1.4-0.4 0.7-0.8 1.5-0.4 0.7-0.8 1.5-0.3 0.7-0.7 1.5c-2.4 4.8-7.2 9.1-12.6 8.3-5.3-0.7-8.7-6.4-9.2-12 0 0.3-0.1 0.6-0.1 0.9-0.2 6.2 3.2 13.3 9.3 14.2 5.3 0.7 10.2-3.6 12.6-8.4q0.4-0.7 0.7-1.5 0.4-0.8 0.8-1.5 0.4-0.8 0.8-1.5 0.4-0.7 0.9-1.4c1.3-1.8 3.4-3.2 5.7-3 1.5 0.1 3 1.1 4.5 1.1 3.3 0.2 5.6-3.3 6.4-6.5q0.3-1.1 0.5-2.1 0.2-1.1 0.4-2.2 0.1-1.1 0.1-2.2 0-1.1-0.1-2.2 0 0.8-0.1 1.5 0 0.7-0.2 1.4-0.1 0.7-0.2 1.4-0.2 0.7-0.4 1.4z"/>
		<path id="Layer" class="s15" d="m243.5 277.6q1 1.3 1.7 2.7 0.7 1.5 1.3 3 0.5 1.5 0.7 3.1 0.3 1.6 0.3 3.2c0.3-5.4-0.7-10.8-4-15.1q-1.6-2-3.8-3.5-2.2-1.6-4.8-2.4-2.5-0.8-5.2-0.8-2.6 0-5.2 0.7c-2.9 1-5.7 2.8-7 5.6-1.7 3.8-0.2 8.3-1.4 12.3-1.3 4.4-5.7 7.5-7 12q-0.1 0.5-0.2 1.1-0.1 0.5-0.2 1.1 0 0.5 0 1.1 0.1 0.5 0.1 1.1 0.1-0.2 0.1-0.4 0-0.1 0-0.3 0.1-0.2 0.1-0.4 0-0.1 0.1-0.3c1.2-4.5 5.6-7.5 7-12 1.2-4-0.3-8.5 1.4-12.3 1.3-2.8 4-4.6 7-5.5q2.6-0.8 5.3-0.8 2.6 0.1 5.2 0.9 2.5 0.8 4.7 2.3 2.2 1.5 3.8 3.6z"/>
	</g>
	<g id="Layer" style="opacity: .8">
		<path id="c40b9370-e8cf-4f46-b0aa-8f4512275a8b" class="s16" d="m550.9 661c-44.4 0-80.2-35.8-80.2-80.2 0-44.3 35.8-80.2 80.2-80.2 44.3 0 80.2 35.9 80.2 80.2 0 44.4-35.9 80.2-80.2 80.2z"/>
		<path id="2e22f7a4-7c1b-458a-b567-b65e93177032" fill-rule="evenodd" class="s17" d="m527.3 544.5q1.2 0 2.4 0 1.2 0.1 2.4 0.2 1.2 0.1 2.3 0.3 1.2 0.2 2.4 0.4 1 0.2 1.9 0.5 1 0.3 1.9 0.6 0.9 0.4 1.8 0.9 0.9 0.4 1.7 1 0.8 0.5 1.5 1.1 0.6 0.7 1.2 1.4 0.6 0.7 1.1 1.4 0.5 0.8 0.9 1.6 0.5 1 0.8 2.1 0.4 1 0.6 2.1 0.2 1.1 0.3 2.2 0.1 1.1 0 2.2 0.1 1.2-0.1 2.4-0.1 1.2-0.4 2.4-0.3 1.1-0.8 2.2-0.5 1.1-1.2 2.2-0.7 0.9-1.5 1.8-0.8 0.9-1.8 1.7-0.9 0.7-1.9 1.3-1 0.7-2.1 1.2 1.4 0.3 2.9 1 1.4 0.6 2.7 1.5 1.2 0.8 2.3 1.9 1.1 1.1 2.1 2.3 1.4 2.4 2.2 5 0.9 2.7 1 5.5 0.2 2.7-0.4 5.5-0.5 2.7-1.7 5.2-0.5 1-1.1 1.9-0.6 0.9-1.4 1.7-0.7 0.9-1.5 1.6-0.8 0.7-1.7 1.4-1 0.6-2 1.2-0.9 0.6-2 1-1 0.5-2.1 0.9-1.1 0.4-2.2 0.6-1.1 0.3-2.3 0.6-1.2 0.2-2.4 0.4-1.2 0.1-2.4 0.2-1.2 0.1-2.4 0.1h-35.2v-72.7zm-2 29.4q0.9 0 1.9-0.1 0.9-0.1 1.8-0.3 0.9-0.3 1.7-0.7 0.8-0.4 1.6-0.9 2.8-2 2.8-6.6 0-0.6-0.1-1.1 0-0.5-0.1-1.1-0.1-0.5-0.3-1-0.2-0.5-0.5-1-0.2-0.4-0.4-0.8-0.3-0.3-0.6-0.6-0.3-0.4-0.7-0.6-0.3-0.3-0.7-0.5-0.4-0.3-0.8-0.5-0.5-0.2-0.9-0.3-0.4-0.2-0.9-0.3-0.4-0.1-0.9-0.2-0.5-0.1-1-0.2-0.6 0-1.1-0.1-0.5 0-1-0.1-0.5 0-1 0h-15v17zm0.9 30.9q0.5 0 1.1-0.1 0.6 0 1.1 0 0.6-0.1 1.2-0.2 0.5-0.1 1.1-0.2 0.5-0.1 0.9-0.2 0.5-0.2 1-0.4 0.5-0.2 0.9-0.4 0.5-0.2 0.9-0.5 0.4-0.3 0.8-0.6 0.4-0.3 0.7-0.7 0.3-0.4 0.6-0.8 0.3-0.4 0.5-0.8 0.3-0.6 0.5-1.1 0.2-0.6 0.3-1.2 0.1-0.6 0.2-1.2 0-0.6 0-1.2 0-5.6-3.1-8-0.9-0.6-1.9-1.1-1.1-0.5-2.1-0.8-1.1-0.3-2.2-0.4-1.1-0.2-2.2-0.1h-17.4v20zm47.9-1.5q3.3 3.1 9.4 3.1 1 0.1 2-0.1 1-0.1 1.9-0.4 1-0.3 1.9-0.7 0.9-0.4 1.7-1 0.7-0.4 1.3-0.9 0.6-0.5 1.1-1.1 0.5-0.6 0.8-1.2 0.4-0.7 0.7-1.4h12.7q-3 9.5-9.3 13.5-1.8 1.1-3.6 1.9-1.9 0.8-3.8 1.3-2 0.5-4 0.7-2 0.3-4 0.2-1.4 0-2.8-0.1-1.5-0.1-2.9-0.4-1.4-0.2-2.7-0.6-1.4-0.4-2.8-0.9-1.2-0.5-2.3-1-1.1-0.6-2.2-1.3-1.1-0.8-2-1.6-1-0.8-1.9-1.7-0.9-1-1.7-2-0.8-1-1.4-2.1-0.7-1.1-1.3-2.3-0.5-1.2-1-2.4-0.4-1.3-0.8-2.7-0.4-1.4-0.6-2.8-0.2-1.4-0.3-2.8-0.2-1.5-0.1-2.9-0.1-1.4 0.1-2.8 0.1-1.4 0.3-2.8 0.3-1.4 0.6-2.7 0.4-1.4 0.9-2.7 0.9-2.4 2.3-4.7 1.4-2.2 3.2-4.1 1.8-1.9 3.9-3.3 2.2-1.5 4.6-2.5 1.3-0.6 2.6-1 1.4-0.4 2.8-0.7 1.3-0.2 2.7-0.4 1.4-0.1 2.8-0.1 1.6 0 3.1 0.1 1.5 0.2 3 0.5 1.4 0.3 2.9 0.8 1.4 0.5 2.7 1.2 1.3 0.6 2.4 1.4 1.1 0.8 2.2 1.6 1 0.9 1.9 1.9 0.9 1 1.7 2.1 0.9 1.1 1.6 2.3 0.7 1.2 1.2 2.5 0.6 1.3 1.1 2.6 0.4 1.3 0.8 2.6 0.3 1.5 0.6 2.9 0.2 1.5 0.3 2.9 0.2 1.5 0.2 3 0 1.5-0.1 2.9h-38q0.3 7 3.5 10.2zm16.4-27.7q-2.6-2.8-7.9-2.8-0.8-0.1-1.5 0-0.7 0-1.5 0.2-0.7 0.1-1.4 0.4-0.7 0.2-1.4 0.5-0.5 0.3-1 0.6-0.5 0.3-1 0.7-0.4 0.3-0.8 0.7-0.5 0.5-0.8 0.9-0.4 0.4-0.6 0.9-0.3 0.4-0.6 0.9-0.2 0.4-0.4 0.9-0.2 0.5-0.4 1-0.1 0.4-0.2 0.8-0.1 0.5-0.2 0.9-0.1 0.4-0.1 0.9-0.1 0.4-0.1 0.8h23.5q-1-5.4-3.7-8.3zm-22.4-27.4h29.4v8.2h-29.4z"/>
	</g>
	<g id="Layer" style="opacity: .8">
		<path id="Layer" class="s18" d="m913.3 627.8q0 1.1 0 2.3c-0.3 9.5-2.3 18.9-5.8 27.7-3.6 8.8-8.7 17-15.1 24-6.4 7.1-14.1 12.9-22.5 17.3-8.5 4.3-17.7 7.2-27.1 8.3q-1.2 0.2-2.4 0.3-1.2 0.1-2.4 0.1-1.3 0.1-2.5 0.1-1.2 0.1-2.4 0.1c-32.4 0-61.7-19.6-74.1-49.5-12.4-30-5.5-64.5 17.4-87.4 23-23 57.4-29.8 87.4-17.4 30 12.4 49.5 41.7 49.5 74.1z"/>
		<path id="Layer" class="s19" d="m913.2 630.1c-0.2 9.5-2.2 18.9-5.8 27.7-3.5 8.8-8.6 17-15.1 24-6.4 7.1-14 12.9-22.5 17.3-8.4 4.3-17.6 7.2-27.1 8.3l-65.5-48.7 8.2-53 32.4 2 18.4 15.4 13.1-21.3 22 18.3 11.9 8.4v-26.7l29.8 27.6c0 0.2 0.2 0.4 0.2 0.7z"/>
		<path id="Layer" class="s19" d="m777.3 658.7z"/>
		<path id="Layer" fill-rule="evenodd" class="s17" d="m797.4 658.5h-20.1v-57.3h19.7c19.9 0 30.3 11.6 30.3 28.6 0 17-10.6 28.7-29.9 28.7zm-0.7-46.2h-5.2v35.1h5.2c10.1 0 16.4-5.3 16.4-17.5 0-12.1-6.7-17.6-16.4-17.6zm74.8 46.2l-22.5-34.3v34.3h-13.2v-57.3h13.8l21 32v-32h13.2v57.3c0 0-12.3 0-12.3 0z"/>
	</g>
	<path id="Layer" class="s20" d="m853 542.5c-1-2-10.4-15.4-10.4-15.4l-0.2-1.2-3.1-13.7-0.2-1c2-0.5 3.4-1.1 3.9-1.9 2.2-3.8-1.9-8.5-1.9-8.5l-0.8-20.3-2.2-49c0 0-4.6-16.4-5.3-20.2-0.7-3.8-6.9-11.9-6.9-11.9 0 0 1.3-4-0.4-6.8-1.6-2.9-5.4-16.3-5.4-16.3l-3.2-37-1.5-36.4q0.6 0 1.1 0.1 0.6 0 1.2 0 0.6 0.1 1.1 0.2 0.6 0 1.2 0.2c0.2 0.1 0.1-0.3-0.3-1.1q0.1 0 0.1 0 0 0 0.1 0 0 0 0 0 0 0 0.1 0.1c0.5 0.4-0.9-2.7-2.4-5.9l-0.2-0.4c0.7-2.6 3.7-13.2 5.8-17 1.5-2.8-1.4-22.3-3.7-35.6q-0.2-1.4-0.5-2.7c3.7-6.5 7.9-13.7 7.9-13.7 0 0 10.7-30.5 15.1-43.7 4.4-13.2 0-47.5 0-47.5 0 0 0-1.7-0.3-4.3-0.7-7.1-3.3-20.9-13.4-26.3-13.9-7.4-18.3-16.4-18.3-16.4 0 0-17.3-15.8-19.5-10.5l-0.2-0.3q-0.5-1-0.9-2-0.4-1-0.8-2-0.3-1.1-0.6-2.2-0.3-1-0.5-2.1-0.1-0.5-0.2-0.9 0.9-0.6 1.6-1.4 0.8-0.7 1.5-1.5 0.7-0.7 1.4-1.6 0.6-0.8 1.2-1.7c0 0.5 0 0.9-0.1 1.3q0 0.5 0 0.9v0.4q0 0 0 0.1 0 0.1 0 0.1 0 0.1 0 0.2 0 0 0 0.1 0 0.2 0 0.3 0.5 0.1 1 0 0.5-0.1 0.9-0.3 0.4-0.3 0.7-0.6 0.4-0.4 0.6-0.8 0.2-0.4 0.4-0.9 0.1-0.4 0.3-0.9 0.1-0.5 0.2-0.9 0.1-0.5 0.2-1 0.2-1 0.5-2 0.3-0.9 0.7-1.9 0.4-0.9 0.9-1.8 0.5-1 1-1.8c1.5-2.3 3.5-4.6 3.7-7.2q0.1-0.1 0.1-0.2 0-0.2 0-0.3 0-0.2 0-0.3 0-0.2-0.1-0.3c-0.1-1.3-0.7-2.6-0.9-3.9q0-0.2 0-0.5-0.1-0.2-0.1-0.5 0-0.2 0.1-0.5 0-0.2 0-0.5c0-0.4 0.1-0.7 0.1-1.1 0.1-0.4 0.2-1 0.3-1.6 0-0.5 0.1-0.9 0.2-1.3q0-0.5 0-0.9 0.1-0.4 0.1-0.9 0-0.4-0.1-0.8 0-0.5 0-0.9-0.1-0.8-0.4-1.6-0.2-0.7-0.6-1.4-0.5-0.7-1-1.3-0.6-0.5-1.3-0.9c-1-0.5-2.1-0.7-3.1-1.2-2.7-1.4-3.5-4.6-5-7.1q-0.8-1.2-1.9-2.3-1.1-1-2.4-1.7-1.3-0.8-2.7-1.2-1.4-0.4-2.9-0.5c-4-0.2-8 1.6-11.9 1-2.5-0.4-4.8-1.8-7.3-1.9-3.8-0.3-7.1 2-10.1 4.1-2.1 1.6-4.4 3.3-5.1 5.8-0.6 2.1 0 4.4-1.2 6.2-0.7 1.2-2.1 1.9-2.9 3q-0.3 0.4-0.5 0.8-0.2 0.4-0.3 0.8-0.1 0.4-0.2 0.8 0 0.4 0 0.9 0 0.1 0 0.3c0 0.1 0 0.3 0 0.5 0.1 0.8 0.2 1.6 0.3 2.3q0 0.1 0 0.1 0 0 0 0 0 0.1 0 0.1 0 0 0 0.1c0.3 2.1-0.4 3.6-1.1 5.6q-0.1 0.3-0.2 0.7-0.1 0.3-0.2 0.7-0.1 0.3-0.1 0.6 0 0.4-0.1 0.7c0 0.3 0 0.1 0 0.2q0 0.1 0 0.2 0 0 0 0.1 0 0.1 0 0.2 0 0 0 0.1 0 0.1 0 0.1 0.1 0.3 0.2 0.6 0 0.2 0.1 0.5 0.2 0.2 0.3 0.4 0.2 0.3 0.4 0.5 0-0.2 0.2-0.3 0.1-0.2 0.2-0.3 0.1-0.1 0.3-0.2 0.1-0.1 0.2-0.2 0.1 0.4 0 0.9 0.1 2.7 0.6 5.3 0.5 2.6 1.5 5 1.1 2.4 2.6 4.6 1.5 2.2 3.3 4c0 0.3 0 0.6-0.1 0.9-0.4 3-1 6.3-1.7 9.5l-0.2 1h-5c0 0 0.8-3.7-7.5 0.8-8.3 4.5-18.4 6.7-20 7.5-1.5 0.9-20.3 15.4-20.3 15.4 0 0-16.2 9.4-15.7 25.5l-1.9 18-1.3 33.6c0 0-2.6 28.6 0 32.6 2.5 4 6.9 27.8 6.1 30.8-0.6 2.2 5.5 17.5 9.7 26.4q-0.4 0.5-0.8 0.9-0.4 0.5-0.8 1-0.4 0.5-0.8 0.9-0.4 0.5-0.7 1c-0.3 0.4-1.7 6.7-1.7 7.4 0 0 0 0.1 0.1 0.1-3.8 3.8-9.8 10.1-9.8 11.5 0 2 1.2 3.7-0.6 3.6-1.9-0.1-2 2-1.9 3.4 0.2 1.3-2.2-0.7-2 1.8 0.1 2.5-17.3 41.8-17.3 41.8 0 0-8 19.3-11 22.5-3.1 3.1-7.3 17.2-7 22.4 0.4 5.1 0.6 6.7-0.8 6.7-1.4 0-4.1 4.6-4.1 4.6l-13.3 41.2c0 0-3.9 12.7-5.1 12.5-1.2-0.1-3.9 21.9-3.9 21.9 0 0-2.8 6.5-3.3 6.5-0.1 0 0.3 0.5 1.2 1.2l-0.6 0.5q-0.4 0.4-0.9 0.8-0.5 0.4-1 0.8-0.5 0.3-1 0.7-0.5 0.4-1 0.7c-0.1 0-7.8-5.3-13-4.8-5.3 0.5-16.1 1.8-21.5-2-3-2.2-9.4-4-14.5-4.1-4-0.1-7.3 1-7.5 4.1-0.5 6.8 18.4 19.7 18.4 19.7 0 0 20 5.7 23.9 11 3.9 5.3 19.8 13.4 19.8 13.4 0 0 4.9-2.1 6.7-4.3q0.1-0.1 0.3-0.3 0.1-0.2 0.2-0.4 0.1-0.2 0.1-0.4 0-0.2 0-0.4c-0.3-2.6 6.6-12 6.6-12l1-4.8c0.5-2.3 1.1-5.1 1.7-7.6q0.2-0.5 0.3-1 0.3 0 0.6 0 0.3 0 0.6-0.1 0.3 0 0.6-0.1 0.2-0.1 0.5-0.2c6.8-2.6 7.5-10 7.5-10l10.1-21.2c0 0 4.4-12.2 5.7-14.3 1.4-2.2 11.9-24.1 11.9-24.1 0 0 1.9-9.4 3.6-12.2 1.7-2.9 1.8-9 1.8-9 0 0 3.6-9.4 7.3-13.1q1-1.1 1.9-2.2 1-1.2 1.9-2.3 0.8-1.2 1.6-2.5 0.8-1.2 1.5-2.5c0.5-0.9 15.4-24.3 25.9-31.1 0 0 25.3-30.8 26.8-33.5 1.5-2.7 6.2-9.7 12-3.3 5.7 6.3 11.8 14.5 11.8 14.5l10.4 28.1 11.5 36c0 0 5.4 8.7 5.1 10.6-0.4 1.8 8.8 18.2 8.8 18.2 0 0 3.5 6 2.8 9-0.6 3 2.6 6 2.6 6l1 12.2c0 0 3.7 12 2.7 13.9-1 1.9 3.5 13.4 3.5 13.4 0 0 0 10.2 1.7 13.5 1.7 3.4 3.8 16.7 3.6 17.7-0.2 1 0 10.3 0 10.3 0 0 1.2 0 3.1-0.1l0.1 1 0.8 10.1 0.1 0.9q-0.3 0.3-0.6 0.6-0.3 0.3-0.5 0.7-0.2 0.4-0.3 0.8-0.1 0.4-0.1 0.8c0 2.8 0.4 10.7 0.7 17 0.1 1.7 0.2 3.2 0.2 4.5q0.1 0.7 0.4 1.3 0.3 0.6 0.8 1.1 0.5 0.4 1.2 0.6 0.7 0.2 1.3 0.1 1.8-0.2 3.7-0.3 1.8-0.1 3.6 0 1.8 0.1 3.6 0.3 1.8 0.2 3.6 0.6 2 0.4 4 0.7 2 0.3 4 0.5 2 0.1 4 0.1 2.1 0 4.1-0.2c1.3-0.1 0.3-3.7 0.4-7.1 0-2.2 0-4.2-0.4-4.9z"/>
	<path id="Layer" class="s21" d="m840 527.6h-22.8l-0.2-2.7-0.9-10.1-0.6-7.6h20l1.3 5.6 3 13.6 0.2 1.2z"/>
	<path id="Layer" class="s21" d="m630.2 487.2c-0.4 0.4-1.2 3-1.9 6-1.3 5.4-2.6 12.4-2.6 12.4l-0.9 0.2-17.8 4.2c0 0-9.3-21.3-5-21.8q0.6-0.1 1.2-0.3 0.5-0.2 1.1-0.4 0.5-0.2 1-0.5 0.5-0.3 1-0.7 0.5-0.3 1-0.7 0.6-0.4 1.1-0.7 0.5-0.4 1-0.8 0.5-0.4 1-0.9c2.3-2 4.1-3.8 4.1-3.8 0 0 16.9 6.6 15.7 7.8z"/>
	<path id="Layer" class="s2" d="m630.2 487.2c-0.4 0.4-1.2 3-1.9 6-6.1-0.3-15.4-7.6-18-10 2.4-2 4.2-3.8 4.2-3.8 0 0 16.9 6.6 15.7 7.8z"/>
	<path id="Layer" class="s2" d="m836.7 512.8c-5.4 1.4-15.5 1.9-20.6 2l-0.6-7.6h20z"/>
	<path id="Layer" class="s22" d="m691.7 278.9c0 0-12.5 12.3-12.5 14.3 0 2 1.2 3.8-0.7 3.6-1.8-0.1-1.9 2.1-1.8 3.4 0.2 1.3-2.2-0.7-2 1.8 0.2 2.5-17 41.7-17 41.7 0 0-7.8 19.2-10.8 22.3-3 3.2-7.2 17.2-6.9 22.4 0.4 5.2 0.5 6.6-0.8 6.6-1.4 0-4 4.7-4 4.7l-13.2 41c0 0-3.8 12.7-5 12.5-1.1-0.2-4 21.8-4 21.8 0 0-2.8 6.5-3.3 6.5-0.5 0 14.5 13 21.2 10.4 6.6-2.7 7.3-10 7.3-10l10-21c0 0 4.3-12.2 5.7-14.3 1.3-2.2 11.6-24 11.6-24 0 0 1.9-9.4 3.5-12.2 1.7-2.8 1.9-9 1.9-9 0 0 3.5-9.3 7.1-13q1-1.1 1.9-2.2 1-1.2 1.8-2.4 0.9-1.1 1.7-2.4 0.8-1.2 1.5-2.5c0.4-0.9 15.1-24.2 25.5-31 0 0 24.8-30.7 26.3-33.4 1.5-2.6 6.2-9.6 11.8-3.3 5.7 6.4 11.7 14.5 11.7 14.5l10.2 28 11.3 35.8c0 0 5.3 8.7 5 10.5-0.4 1.9 8.7 18.2 8.7 18.2 0 0 3.5 6 2.8 9-0.7 3 2.5 6 2.5 6l1 12.2c0 0 3.7 12 2.7 13.8-1 1.9 3.5 13.4 3.5 13.4 0 0 0 10.1 1.6 13.5 1.7 3.3 3.7 16.6 3.5 17.6-0.1 1 0 10.2 0 10.2 0 0 25.2-0.2 27.3-4 2.2-3.8-1.8-8.5-1.8-8.5l-0.8-20.2-2.2-48.8c0 0-4.5-16.3-5.2-20.2-0.6-3.8-6.8-11.8-6.8-11.8 0 0 1.3-4-0.3-6.8-1.7-2.9-5.4-16.2-5.4-16.2l-3.1-36.8-1.7-40.2z"/>
	<path id="Layer" class="s2" d="m817.7 304.7c-1-0.8-42-1.2-42.5-1.2-0.5 0-16-6.1-16-6.1 0 0-34.5-5.7-39.8-3.2-5.4 2.5-21.9-4.7-21.9-4.7v-3.1c0 0-8.8-3-8.8-3.7 0-0.6 1.7-7.3 1.7-7.3l1-0.4 3.8-1.3 117.1 18.8c0 0 1.6 3.2 3 6.3 1.5 3.1 2.9 6.3 2.4 5.9z"/>
	<path id="Layer" class="s23" d="m817.7 303.7c-1-0.8-42-1.2-42.5-1.2-0.5 0-16-6.1-16-6.1 0 0-34.5-5.7-39.8-3.2-5.4 2.5-21.9-4.7-21.9-4.7v-3.1c0 0-8.8-3-8.8-3.7 0-0.6 1.7-7.3 1.7-7.3l1-0.4 3.8-1.3 117.1 18.8c0 0 1.6 3.2 3 6.3 1.5 3.1 2.9 6.3 2.4 5.9z"/>
	<path id="Layer" class="s2" d="m626.6 499.8l-1 4.8c0 0-0.3 0.4-0.8 1.2l-17.8 4.2c0 0-9.3-21.3-5-21.8q0.6-0.1 1.2-0.3 0.5-0.2 1.1-0.4 0.5-0.2 1-0.5 0.5-0.3 1-0.7c-0.9 6.7 4.2 13.7 4.2 13.7 7.4 5.5 16.1-0.2 16.1-0.2z"/>
	<path id="Layer" class="s11" d="m626.6 500.9l-1 4.7c0 0-6.8 9.5-6.5 12q0 0.2 0 0.4 0 0.2-0.1 0.4-0.1 0.2-0.2 0.4-0.2 0.2-0.3 0.4c-1.8 2.1-6.5 4.2-6.5 4.2 0 0-15.7-8-19.5-13.3-3.9-5.4-23.5-11-23.5-11 0 0-18.7-12.9-18.2-19.7 0.2-3 3.5-4.1 7.5-4.1 5 0.1 11.2 2 14.2 4.1 5.3 3.8 16 2.5 21.1 2 5.2-0.5 12.8 4.8 12.8 4.8-1.7 7 4.1 14.9 4.1 14.9 7.4 5.5 16.1-0.2 16.1-0.2z"/>
	<path id="Layer" class="s23" d="m618.5 519.1c-1.7 2.2-6.5 4.3-6.5 4.3 0 0-15.6-8-19.5-13.4-3.8-5.3-23.5-11-23.5-11 0 0-18.6-12.8-18.1-19.6 0.2-3 3.4-4.2 7.4-4.1 3 5 7.5 12 10.7 13.9 5.4 3.2 15.9 9.2 15.9 9.2 0 0 16.6 10.5 17.8 11.6 0.9 1 10.6 7.4 15.8 9.1z"/>
	<path id="Layer" class="s2" d="m840 527.5h-22.8l-0.2-2.6c2.8-2.8 9-4 9-4 4.3-1.4 12.2 4.3 13.7 5.4z"/>
	<path id="Layer" class="s11" d="m850.6 547.8c0 3.3-0.4 7.1-0.4 7.1q-2 0.2-4 0.2-2 0-4-0.2-2-0.1-3.9-0.4-2-0.3-3.9-0.8-1.8-0.3-3.6-0.6-1.7-0.2-3.5-0.2-1.8-0.1-3.6 0-1.8 0.1-3.6 0.3-0.6 0.1-1.3-0.1-0.6-0.2-1.2-0.7-0.5-0.4-0.8-1-0.3-0.6-0.3-1.3c-0.1-1.3-0.2-2.8-0.3-4.5-0.3-6.2-0.7-14.2-0.7-16.9 0-4.6 10.5-6.8 10.5-6.8 4.8-1.5 14 5.7 14 5.7 0 0 9.2 13.3 10.2 15.3 0.4 0.8 0.5 2.7 0.4 4.9z"/>
	<path id="Layer" class="s23" d="m850.6 547.8c0 3.3-0.4 7.1-0.4 7.1q-2 0.2-4 0.2-2 0-4-0.2-2-0.1-3.9-0.4-2-0.3-3.9-0.8-1.8-0.3-3.6-0.6-1.7-0.2-3.5-0.2-1.8-0.1-3.6 0-1.8 0.1-3.6 0.3-0.6 0.1-1.3-0.1-0.6-0.2-1.2-0.7-0.5-0.4-0.8-1-0.3-0.6-0.3-1.3c-0.1-1.3-0.2-2.8-0.3-4.5 3.9-0.6 9.5-1.1 13.5-0.2 4.6 1 15.1 1.9 20.9 2.4z"/>
	<path id="Layer" class="s2" d="m622.9 447.6c0 0-3.5 6 0 8.8 3.5 2.7 0-8.8 0-8.8z"/>
	<path id="Layer" class="s2" d="m810.9 470.9c1 2 3.7 5 3.2 8.5-0.4 3.5-3.2-8.5-3.2-8.5z"/>
	<path id="Layer" class="s21" d="m807.9 105.2c0 0-15.3-1.5-31.1-3.6l-0.7-0.1c-18.4-2.5-37.2-5.6-33.6-8 1.6-1 3-3.5 4.1-6.7q0.3-0.8 0.6-1.5 0.2-0.8 0.4-1.6 0.2-0.8 0.4-1.6 0.2-0.7 0.4-1.5 0.1-0.5 0.2-1c0.7-3.2 1.3-6.5 1.7-9.5 0.9-6 1.2-10.9 1.2-10.9 0 0 39.2-14.8 34.4 3.7q-0.3 1.1-0.5 2.2-0.1 1.2-0.1 2.3 0 1.2 0.1 2.3 0.1 1.1 0.3 2.2 0.2 1.1 0.5 2.2 0.3 1 0.7 2.1 0.3 1 0.7 2 0.4 1.1 0.9 2c6.3 13.4 19.4 25 19.4 25z"/>
	<path id="Layer" class="s2" d="m785.9 62.9q-0.3 1.1-0.5 2.2-0.1 1.2-0.1 2.3 0 1.1 0.1 2.3 0.1 1.1 0.3 2.2c-2.5 2.1-5.4 3.6-8.5 4.7-3 1-6.3 1.4-9.5 1.2-3.3-0.1-6.5-0.9-9.4-2.2-3-1.3-5.7-3.2-8-5.5 0.9-6 1.2-10.9 1.2-10.9 0 0 39.2-14.8 34.4 3.7z"/>
	<path id="Layer" class="s21" d="m795.5 50.4c0 7-2.8 13.7-7.7 18.7-5 5-11.7 7.8-18.8 7.8-7 0-13.7-2.8-18.7-7.8-5-4.9-7.8-11.7-7.8-18.7 0-7.1 2.8-13.8 7.8-18.8 5-4.9 11.7-7.7 18.7-7.7 7 0 13.8 2.8 18.8 7.7 4.9 5 7.7 11.7 7.7 18.8z"/>
	<path id="Layer" class="s2" d="m777.1 100.5q0 0.1-0.1 0.3 0 0.1 0 0.2-0.1 0.2-0.1 0.3-0.1 0.1-0.1 0.3l-0.7-0.1c-18.4-2.5-37.2-5.6-33.6-8 1.6-1 3-3.5 4.1-6.7q0.3-0.8 0.6-1.5 0.2-0.8 0.4-1.6 0.2-0.8 0.4-1.6 0.2-0.7 0.4-1.5 0.1-0.5 0.2-1h0.8c0.1 0.4 2 13.2 19.2 15.4h0.6c6.7 0.8 8.4 3 7.9 5.5z"/>
	<path id="Layer" class="s23" d="m776.1 101.5c-0.8 4.1-7.9 9-7.9 9l-19.7-3.6c0 0-12.3-11-12.3-11.4 0-0.3 7.3-15 7.3-15h4.9c0.1 0.5 2 13.3 19.2 15.5h0.6c6.7 0.8 8.4 3 7.9 5.5z"/>
	<path id="Layer" class="s2" d="m807.9 105.2c0 0-15.7-1.6-31.8-3.7-0.8 4.1-7.9 9-7.9 9l-19.7-3.6c0 0-12.3-11-12.3-11.4 0-0.3 7.3-15 7.3-15h0.3q0.2 0.9 0.5 1.7 0.3 0.8 0.7 1.6 0.3 0.8 0.8 1.5 0.4 0.8 0.9 1.5c3 4.7 9 9.9 20 9.2h0.9c16.5-1.4 20.2-12.8 20.9-15.8 6.3 13.4 19.4 25 19.4 25z"/>
	<path id="Layer" class="s2" d="m815.3 297.8l-0.3 1.2c-4-3-33.1-5-33.1-5 0 0-7.7-0.9-15-2-5.4-0.9-10.5-1.9-12.4-2.8q-0.2-0.1-0.3-0.1-0.2-0.1-0.4-0.2-0.1 0-0.3-0.1-0.2 0-0.3-0.1c-6.7-2.1-27-4.5-27-4.5 0 0-10 4.5-15.4 2.5-5.3-2-20.5-11.3-20.5-11.3 0 0 0.4-0.5 1-1.4l3.8-1.3 117.2 18.8c0 0 1.6 3.2 3 6.3z"/>
	<path id="Layer" class="s11" d="m817.2 245.1c2.3 13.3 5.2 32.7 3.7 35.5-2.4 4.3-5.9 17.5-5.9 17.5-4-3-33.1-5-33.1-5 0 0-7.7-0.9-15-2.1-5.4-0.8-10.5-1.8-12.4-2.7q-0.2-0.1-0.3-0.2-0.2 0-0.4-0.1-0.1-0.1-0.3-0.1-0.2-0.1-0.3-0.1c-6.7-2.1-27-4.5-27-4.5 0 0-10 4.5-15.4 2.5-5.3-2-20.5-11.4-20.5-11.4q0.8-1.1 1.7-2.2 0.9-1 1.8-2.1 1-1 2-2 1-0.9 2-1.8c5.2-4.7 14.7-44.9 14.4-45.4-0.2-0.5-2.5-13.3-1.9-20.8 0.7-7.5-2-44.2-2-44.2 0 0-26.8-10.3-27.3-26.3-0.4-16 15.5-25.4 15.5-25.4 0 0 18.5-14.5 20-15.3 1.5-0.9 11.5-3 19.7-7.5 8.2-4.5 7.3-0.9 7.3-0.9 0 0 3.4 17.7 23.2 16.5 19.8-1.1 22-16.5 22-16.5 2.1-5.3 19.2 10.5 19.2 10.5 0 0 4.4 9 18 16.4 10 5.3 12.6 19.1 13.3 26.2 0.2 2.6 0.2 4.3 0.2 4.3l-40.1 28.8 15.7 65.9c0 0 1 5.3 2.2 12.5z"/>
	<path id="Layer" class="s21" d="m717.9 279.4c0 0 13.1 22.7 26.8 16.3q1.1-0.5 2.2-1.2 1-0.7 2-1.5 0.9-0.9 1.7-1.9 0.8-1 1.4-2.1c5.4-9.3 0-21.2-10.5-24-3.8-1-8-1.6-11.3-1-9.5 1.7-12.3 15.4-12.3 15.4z"/>
	<path id="Layer" class="s2" d="m717.9 279.4c0 0 13.1 22.7 26.8 16.3q1.1-0.5 2.2-1.2 1-0.7 2-1.5 0.9-0.9 1.7-1.9 0.8-1 1.4-2.1c5.4-9.3 0-21.2-10.5-24-3.8-1-8-1.6-11.3-1-9.5 1.7-12.3 15.4-12.3 15.4z"/>
	<path id="Layer" class="s2" d="m698.5 113.9c0 0 10.4 7 10.6 18z"/>
	<path id="Layer" class="s2" d="m714.9 119.2c0 0.7-3 47 2.3 62.9 5.3 15.8-2.3-62.9-2.3-62.9z"/>
	<path id="Layer" class="s2" d="m795.5 50.4q0 1.9-0.2 3.8-0.3 1.9-0.9 3.7-0.5 1.8-1.3 3.6-0.8 1.7-1.9 3.3 0-0.5 0-1c-0.1-2.8-1.6-5.3-3-7.7q-0.4-0.7-0.8-1.4-0.5-0.6-1-1.2-0.5-0.7-1.1-1.2-0.5-0.6-1.1-1.1-0.2-0.1-0.4-0.2-0.2-0.1-0.3-0.3-0.2-0.1-0.4-0.2-0.1-0.2-0.3-0.3c-0.9-1-0.8-2.6-1-4q-0.2-1.4-0.8-2.6-0.6-1.3-1.6-2.3-0.9-1-2.2-1.7-1.2-0.7-2.6-0.9-0.3-0.1-0.6-0.1-0.2 0-0.5 0-0.3 0.1-0.6 0.2-0.3 0.1-0.5 0.2c-0.7 0.5-1 1.4-1.6 1.9-0.9 0.8-2.3 0.7-3.5 0.5-2.6-0.5-5.3-1.5-7.9-0.6-4.3 1.4-6 7.5-10.4 8.6q-0.5 0.1-1 0.1-0.5 0.1-1 0.1-0.5 0-1 0-0.5 0.1-1 0.1-0.3 0-0.7 0-0.3 0.1-0.6 0.2-0.3 0.1-0.6 0.2-0.3 0.1-0.6 0.3c0-7.1 2.8-13.8 7.8-18.8 5-5 11.7-7.7 18.7-7.7 7.1 0 13.8 2.7 18.8 7.7 4.9 5 7.7 11.7 7.7 18.7z"/>
	<path id="Layer" class="s24" d="m742.8 32.8c0.8-1.1 2.1-1.8 2.9-3 1.1-1.8 0.6-4.1 1.1-6.2 0.7-2.5 2.9-4.2 5-5.7 3-2.2 6.3-4.5 9.9-4.2 2.5 0.2 4.8 1.5 7.3 1.9 3.8 0.7 7.7-1.1 11.6-1q1.5 0.1 2.9 0.5 1.4 0.5 2.7 1.2 1.3 0.7 2.3 1.8 1.1 1 1.9 2.2c1.5 2.5 2.4 5.7 5 7 1 0.5 2.1 0.7 3.1 1.2q0.7 0.4 1.2 1 0.6 0.5 1 1.2 0.4 0.7 0.7 1.5 0.2 0.7 0.3 1.5 0 0.8 0 1.6 0 0.8 0 1.6-0.1 0.8-0.2 1.6-0.1 0.7-0.3 1.5 0 0.4-0.1 0.8 0 0.4 0 0.8-0.1 0.4 0 0.8 0 0.4 0 0.8c0.2 1.3 0.8 2.5 0.9 3.8 0.3 3-2 5.7-3.6 8.2q-0.6 0.9-1.1 1.8-0.4 0.9-0.8 1.9-0.4 0.9-0.7 1.9-0.3 1-0.6 2 0 0.5-0.1 0.9-0.1 0.5-0.2 0.9-0.2 0.5-0.3 0.9-0.2 0.5-0.4 0.9-0.2 0.4-0.5 0.8-0.4 0.3-0.8 0.6-0.4 0.2-0.9 0.3-0.4 0.1-0.9 0.1c-0.2-1.8 0.2-3.7 0.1-5.5-0.1-2.8-1.6-5.3-3-7.7q-0.4-0.7-0.8-1.4-0.5-0.6-1-1.3-0.5-0.6-1-1.1-0.6-0.6-1.2-1.1-0.2-0.1-0.4-0.2-0.2-0.2-0.3-0.3-0.2-0.1-0.4-0.2-0.1-0.2-0.3-0.3c-0.9-1-0.8-2.6-1-4q-0.2-1.4-0.8-2.7-0.6-1.2-1.6-2.2-0.9-1-2.2-1.7-1.2-0.7-2.6-0.9-0.3-0.1-0.5-0.1-0.3 0-0.6 0-0.3 0.1-0.6 0.2-0.3 0.1-0.5 0.2c-0.7 0.5-1 1.4-1.6 1.9-0.9 0.8-2.3 0.7-3.5 0.5-2.6-0.5-5.3-1.5-7.8-0.6-4.4 1.4-6 7.5-10.5 8.6q-0.5 0-1 0.1-0.5 0.1-1 0.1-0.5 0-1 0-0.5 0.1-1 0.1-0.5 0-1 0.1-0.5 0.1-0.9 0.3-0.5 0.3-0.9 0.6-0.4 0.3-0.7 0.7c-1.3-1.4-1-3.6-0.4-5.5 0.8-2.1 1.5-3.6 1.1-5.8-0.4-2.3-0.9-4.3 0.6-6.2z"/>
	<path id="Layer" class="s2" d="m645.4 396.4c0 0-9.5 5-4.5 6 5 1 4.5-6 4.5-6z"/>
	<path id="Layer" class="s2" d="m801.9 408.4c0 0 5.3-7 11-2.8 5.8 4.3-11 2.8-11 2.8z"/>
	<path id="Layer" class="s2" d="m814.1 412.9c0 0 6.6-2.3 10.6 0z"/>
	<path id="Layer" class="s2" d="m684.7 299.4c0 0 14 13.5 18.5 14 4.5 0.5-18.5-14-18.5-14z"/>
	<path id="Layer" class="s2" d="m686.7 121.9l-3.7 7.7-1.8 18-1.3 33.5c0 0-2.5 28.4 0 32.4 2.5 4 6.8 27.7 6 30.7-0.9 3 11 31 13.1 32.7 2.2 1.7 9.9 2 14.2 1.2l7.9 7.5 22.4-20.7-13.8-10.5c0 0 3.2-5.3-5.7-11.2 0 0-4-6.7-4.1-10.2q-0.1-2.6-0.4-5.3-0.2-2.6-0.7-5.3-0.5-2.6-1.1-5.2-0.7-2.6-1.5-5.2c-3.2-9.3-5-61.1-5-61.1 0 0-7.5-37.9-24.5-29z"/>
	<path id="Layer" class="s11" d="m684.7 121.9l-3.7 7.7-1.8 18-1.3 33.5c0 0-2.5 28.4 0 32.4 2.5 4 6.8 27.7 6 30.7-0.9 3 11 31 13.1 32.7 2.2 1.7 9.9 2 14.2 1.2l7.9 7.5 22.4-20.7-13.8-10.5c0 0 3.2-5.3-5.7-11.2 0 0-4-6.7-4.1-10.2q-0.1-2.6-0.4-5.3-0.2-2.6-0.7-5.3-0.5-2.6-1.1-5.2-0.7-2.6-1.5-5.2c-3.2-9.3-5-61.1-5-61.1 0 0-7.5-37.9-24.5-29z"/>
	<path id="Layer" class="s2" d="m719.5 247.2c-1 0.5-21.1 19.2-13.6 19.7 7.5 0.5 13.6-19.7 13.6-19.7z"/>
	<path id="Layer" class="s21" d="m745.2 269.7c0 0-28.8 3-27.3 14.7 1.5 11.7 22 22.9 28.5 19.4 6.5-3.6 12-7 12-7z"/>
	<path id="Layer" class="s2" d="m833.2 129.9l4.2 8c0 0 4.3 34.2 0 47.3-4.4 13.2-14.9 43.5-14.9 43.5 0 0-12.6 22.2-13 23.2-0.3 1-24.3 35.6-28.6 37.5-4.4 1.8-12.5 0.9-13-1.2-0.5-2-11.5 8.6-11.5 8.6 0 0-21.2-25.6-17.9-28.2 3.4-2.7 13.6-3.4 13.6-3.4 0 0 0.8 2.5 1.6-2.6 0.8-5.2 4.7-7.9 7.5-7.5 2.8 0.3 1.7-2.7 2.2-5.9 0.5-3.1 8.3-8.8 8.3-8.8 0 0 3.8-6.2 3.8-9.8 0-3.7 8-6.9 8.7-6.9 0.6 0 0.5-1.5 0.5-6.8 0-5.3 4-14.8 4-14.8l2.5-30 4.3-30.5c0 0 11.9-37.2 37.7-11.7z"/>
	<path id="Layer" class="s2" d="m815 232.6c0 0 1 5.3 2.3 12.5-2 3.6-3.6 6.4-3.8 6.8-0.3 1-24.3 35.7-28.6 37.5-4.3 1.8-12.5 0.9-13-1.2-0.2-0.9-2.5 0.7-5 2.8-3.1 2.5-6.5 5.8-6.5 5.8 0 0-3.4-4-7.2-9.1-5.8-7.6-12.7-17.5-10.7-19.1 3.4-2.7 13.6-3.4 13.6-3.4 0 0 0.8 2.5 1.6-2.6 0.8-5.2 4.7-7.9 7.5-7.5 2.8 0.3 1.7-2.7 2.2-5.9 0.5-3.1 8.3-8.8 8.3-8.8 0 0 3.8-6.2 3.8-9.8 0-3.7 8-6.9 8.7-6.9 0.7 0 0.5-1.5 0.5-6.8 0-5.4 4-14.8 4-14.8l2.5-30 4.3-30.5c0 0 11.9-37.2 37.7-11.7l1.9 3.7c0.3 2.6 0.3 4.3 0.3 4.3l-40.2 28.8z"/>
	<path id="Layer" class="s11" d="m835.2 129.9l4.2 8c0 0 4.3 34.2 0 47.3-4.4 13.2-14.9 43.5-14.9 43.5 0 0-12.6 22.2-13 23.2-0.3 1-24.3 35.6-28.6 37.5-4.4 1.8-12.5 0.9-13-1.2-0.5-2-11.5 8.6-11.5 8.6 0 0-21.2-25.6-17.9-28.2 3.4-2.7 13.6-3.4 13.6-3.4 0 0 0.8 2.5 1.6-2.6 0.8-5.2 4.7-7.9 7.5-7.5 2.8 0.3 1.7-2.7 2.2-5.9 0.5-3.1 8.3-8.8 8.3-8.8 0 0 3.8-6.2 3.8-9.8 0-3.7 8-6.9 8.7-6.9 0.6 0 0.5-1.5 0.5-6.8 0-5.3 4-14.8 4-14.8l2.5-30 4.3-30.5c0 0 11.9-37.2 37.7-11.7z"/>
	<path id="Layer" class="s2" d="m760.9 263.8c0 0 1 2.3 5.5 3.1 4.5 0.8-5.5-3.1-5.5-3.1z"/>
	<path id="Layer" class="s2" d="m814.7 130.1c-0.2 0.5-15 17.2-12 21.6 3 4.4 12-21.6 12-21.6z"/>
	<path id="Layer" class="s2" d="m797.9 207.1c0 0 8.5 8.3 6.8 12.3-1.7 4-6.8-12.3-6.8-12.3z"/>
	<path id="Layer" class="s2" d="m799.2 191.2c0.5 0.9 18.8 3 19.8 10 1 7-19.8-10-19.8-10z"/>
	<g id="Layer" style="opacity: .1">
		<path id="Layer" class="s15" d="m801 41.3c0-0.4 0.1-0.7 0.2-1.1q0.1-0.8 0.2-1.5 0.1-0.7 0.2-1.4 0.1-0.7 0.1-1.5 0-0.7 0-1.4c-0.1 1.2-0.3 2.5-0.5 3.8q-0.1 0.3-0.1 0.7-0.1 0.4-0.1 0.8 0 0.4 0 0.8 0 0.4 0 0.8z"/>
		<path id="Layer" class="s15" d="m742.2 39.4q0.1-0.3 0.1-0.6 0-0.3 0-0.6 0-0.2 0-0.5 0-0.3-0.1-0.6c-0.1-0.7-0.2-1.4-0.3-2.1q0 0.5 0 1 0 0.6 0 1.1 0.1 0.5 0.1 1 0.1 0.5 0.2 1z"/>
		<path id="Layer" class="s15" d="m801.9 46.8c-0.4 2.3-2.2 4.5-3.6 6.6q-0.5 0.9-1 1.8-0.5 0.9-0.9 1.8-0.3 1-0.6 1.9-0.3 1-0.6 2 0 0.5-0.1 1-0.1 0.4-0.3 0.9-0.1 0.4-0.3 0.9-0.1 0.4-0.3 0.9-0.2 0.4-0.6 0.7-0.3 0.4-0.7 0.6-0.4 0.3-0.9 0.4-0.4 0.1-0.9 0 0 0 0 0 0 0 0 0 0-0.1 0-0.1 0 0 0 0 0 0.3-0.1 0.5 0 0.3 0 0.6 0 0.2 0 0.5 0.1 0.2 0.1 0.5 0.5 0.1 0.9 0 0.5-0.1 0.9-0.4 0.4-0.2 0.7-0.6 0.4-0.3 0.6-0.7 0.2-0.5 0.3-0.9 0.2-0.5 0.3-0.9 0.2-0.5 0.3-0.9 0.1-0.5 0.1-1 0.3-1 0.6-2 0.3-0.9 0.6-1.9 0.4-0.9 0.9-1.8 0.5-0.9 1-1.8c1.7-2.6 4-5.2 3.7-8.2 0-0.2 0-0.3-0.1-0.4z"/>
		<path id="Layer" class="s15" d="m791.2 60.9c-0.2-2.8-1.6-5.3-3.1-7.7q-0.3-0.8-0.7-1.4-0.5-0.7-1-1.3-0.5-0.7-1.1-1.2-0.5-0.6-1.2-1.1-0.1-0.1-0.3-0.3-0.2-0.1-0.4-0.2-0.1-0.1-0.3-0.3-0.1-0.1-0.3-0.2c-0.9-1-0.8-2.6-1-4q-0.2-1.4-0.8-2.7-0.6-1.2-1.6-2.2-1-1-2.2-1.7-1.2-0.7-2.6-0.9-0.3-0.1-0.6-0.1-0.3 0-0.5 0-0.3 0.1-0.6 0.2-0.3 0-0.5 0.2c-0.7 0.5-1 1.4-1.6 1.9q-0.4 0.3-0.8 0.4-0.4 0.2-0.9 0.3-0.4 0-0.9 0-0.4-0.1-0.9-0.2c-2.6-0.5-5.3-1.5-7.9-0.6-4.3 1.4-6 7.4-10.4 8.6q-0.5 0-1 0.1-0.5 0-1 0.1-0.5 0-1 0-0.5 0.1-1 0.1-0.5-0.1-1 0.1-0.5 0.1-1 0.3-0.4 0.3-0.8 0.6-0.4 0.3-0.7 0.7-0.1-0.2-0.3-0.4-0.1-0.2-0.2-0.4-0.1-0.2-0.2-0.4-0.1-0.3-0.1-0.5-0.2 0.5-0.2 1 0 0.5 0.2 1 0.1 0.4 0.3 0.9 0.2 0.4 0.5 0.8 0.3-0.4 0.7-0.7 0.4-0.3 0.8-0.6 0.5-0.2 1-0.3 0.5-0.2 1-0.1 0.5 0 1-0.1 0.5 0 1 0 0.5-0.1 1-0.1 0.5-0.1 1-0.1c4.4-1.2 6.1-7.2 10.4-8.6 2.6-0.9 5.3 0.1 7.9 0.6q0.5 0.1 0.9 0.2 0.5 0 0.9 0 0.5-0.1 0.9-0.3 0.4-0.1 0.8-0.4c0.6-0.5 0.9-1.4 1.6-1.9q0.2-0.2 0.5-0.2 0.3-0.1 0.6-0.2 0.2 0 0.5 0 0.3 0 0.6 0.1 1.4 0.2 2.6 0.9 1.2 0.7 2.2 1.7 1 1 1.6 2.2 0.6 1.3 0.8 2.7c0.2 1.3 0.1 2.9 1 4q0.2 0.1 0.3 0.2 0.2 0.2 0.3 0.3 0.2 0.1 0.4 0.2 0.2 0.2 0.3 0.3 0.7 0.5 1.2 1.1 0.6 0.5 1.1 1.2 0.5 0.6 1 1.3 0.4 0.6 0.7 1.4c1.4 2.3 2.8 4.7 3 7.4q0.1-0.2 0.1-0.4 0-0.2 0-0.5 0-0.2 0-0.4 0-0.2 0-0.4z"/>
	</g>
	<path id="Layer" class="s25" d="m462.6 146.8l-0.1 105q0 0.3 0.2 0.6 0.1 0.3 0.3 0.6 0.3 0.2 0.6 0.3 0.3 0.1 0.6 0.1c28.9-0.9 53-24.8 53-54.1 0-29.3-24.1-53.3-53-54.1q-0.3 0-0.6 0.1-0.3 0.1-0.6 0.3-0.2 0.3-0.3 0.6-0.2 0.3-0.2 0.6z"/>
	<path id="Layer" class="s26" d="m390.4 290.1v-86.8q-0.1-5.2 0.7-10.3 0.8-5.1 2.5-10 1.6-4.9 4-9.5 2.4-4.6 5.5-8.8c7.8-10.3 20.1-19.7 38.6-19.5q0.4 0 0.7 0.1 0.4 0.1 0.6 0.4 0.3 0.3 0.5 0.6 0.1 0.4 0.1 0.7v89.4c0 0 3 48.9-52.2 54.7q-0.2 0-0.3-0.1-0.2 0-0.4-0.2-0.1-0.1-0.2-0.3-0.1-0.2-0.1-0.4z"/>
	<path id="Layer" class="s0" d="m163 135.4c-17.4 0-31.5-14.1-31.5-31.5 0-17.5 14.1-31.5 31.5-31.5 17.4 0 31.5 14 31.5 31.5 0 17.4-14.1 31.5-31.5 31.5z"/>
	<path id="Layer" class="s0" d="m97 48.4c-10.8 0-19.5-8.8-19.5-19.5 0-10.8 8.7-19.5 19.5-19.5 10.8 0 19.5 8.7 19.5 19.5 0 10.7-8.7 19.5-19.5 19.5z"/>
	<path id="Layer" class="s0" d="m-5 84.4c-6.6 0-12-5.4-12-12 0-6.7 5.4-12 12-12 6.6 0 12 5.3 12 12 0 6.6-5.4 12-12 12z"/>
	<path id="Layer" class="s1" d="m392.9 671.9q-0.4 0.5-0.7 1-0.3 0.6-0.6 1.1-0.3 0.5-0.6 1.1-0.2 0.5-0.4 1.1c-0.1 0.4-0.3 0.8-0.4 1.2q-0.1 0-0.2-0.1-0.1 0-0.2 0-0.1-0.1-0.2-0.1-0.1 0-0.2 0-0.5-0.2-0.9-0.2-0.4-0.1-0.9-0.1-0.4-0.1-0.9-0.1-0.4 0-0.9 0.1c0-0.5 0.1-1 0.1-1.5 0.1-5.3-0.5-12.6-5.5-9.5-4.8 3-1.4 8 1.7 11.2l0.8 0.8c-2.8 2-3.4 6.7-3.8 11.6-0.5 4.9-4.7 10.3-7.5 13.4q-0.4 0.4-0.7 0.8-0.9-0.7-1.8-1.2-1-0.4-2-0.7-1.1-0.3-2.1-0.3-1.1-0.1-2.2 0.1-0.1-0.6-0.3-1.3c-2.3-8.2-6.9-22.2-12.9-25.2l0.8-1c2.5-3.3 5.4-8.2 1.2-9.4-4.2-1.3-4.6 4.2-4.4 8.4 0 0.5 0.1 1 0.2 1.4q-0.7 0-1.3 0.2-0.6 0.2-1.2 0.4-0.5 0.3-1 0.7-0.5 0.4-0.9 0.9l-0.7-0.8c-3.4-4-9.6-10.4-11.5-5.6-1.7 4.5 3.7 10.3 7.6 13.7l0.2 0.2c-2.5 10.5 8.8 19.1 14.9 22.9l0.7 0.4c-8.4 9.9-13.5 28.5-13.5 28.5l23.5 4.2c0 0 15.6-13.5 13.6-26.1h0.1c15.6-3.1 19.2-19.7 16.7-29.6 0.1 0 0.2-0.1 0.3-0.1q1.1-0.5 2.1-1 1-0.6 1.9-1.3 0.9-0.7 1.7-1.5 0.8-0.8 1.5-1.7c4.4-6.1-4.7-12.9-9.2-7z"/>
	<path id="Layer" class="s2" d="m392.9 671.9q-0.4 0.5-0.7 1-0.3 0.6-0.6 1.1-0.3 0.5-0.6 1.1-0.2 0.5-0.4 1.1c-0.1 0.4-0.3 0.8-0.4 1.2q-0.1 0-0.2-0.1-0.1 0-0.2 0-0.1-0.1-0.2-0.1-0.1 0-0.2 0-0.5-0.2-0.9-0.2-0.4-0.1-0.9-0.1-0.4-0.1-0.9-0.1-0.4 0-0.9 0.1c0-0.5 0.1-1 0.1-1.5 0.1-5.3-0.5-12.6-5.5-9.5-4.8 3-1.4 8 1.7 11.2l0.8 0.8c-2.8 2-3.4 6.7-3.8 11.6-0.5 4.9-4.7 10.3-7.5 13.4q-0.4 0.4-0.7 0.8-0.9-0.7-1.8-1.2-1-0.4-2-0.7-1.1-0.3-2.1-0.3-1.1-0.1-2.2 0.1-0.1-0.6-0.3-1.3c-2.3-8.2-6.9-22.2-12.9-25.2l0.8-1c2.5-3.3 5.4-8.2 1.2-9.4-4.2-1.3-4.6 4.2-4.4 8.4 0 0.5 0.1 1 0.2 1.4q-0.7 0-1.3 0.2-0.6 0.2-1.2 0.4-0.5 0.3-1 0.7-0.5 0.4-0.9 0.9l-0.7-0.8c-3.4-4-9.6-10.4-11.5-5.6-1.7 4.5 3.7 10.3 7.6 13.7l0.2 0.2c-2.5 10.5 8.8 19.1 14.9 22.9l0.7 0.4c-8.4 9.9-13.5 28.5-13.5 28.5l23.5 4.2c0 0 15.6-13.5 13.6-26.1h0.1c15.6-3.1 19.2-19.7 16.7-29.6 0.1 0 0.2-0.1 0.3-0.1q1.1-0.5 2.1-1 1-0.6 1.9-1.3 0.9-0.7 1.7-1.5 0.8-0.8 1.5-1.7c4.4-6.1-4.7-12.9-9.2-7z"/>
	<path id="Layer" class="s1" d="m346.1 678.7l-2.8 8c0 0-1.5-1.1-3.5-2.8-3.8-3.3-9.3-9.1-7.5-13.6 1.8-4.8 8.1 1.5 11.5 5.5 1.3 1.7 2.2 2.9 2.2 2.9z"/>
	<path id="Layer" class="s1" d="m351.9 674.1q-0.4 0.5-0.7 0.9-0.3 0.4-0.6 0.8-0.4 0.3-0.7 0.7-0.4 0.4-0.7 0.8-0.1-0.5-0.2-1.1-0.1-0.5-0.1-1-0.1-0.5-0.1-1.1-0.1-0.5-0.1-1c-0.2-4.2 0.2-9.6 4.3-8.4 4.2 1.2 1.4 6.1-1.1 9.4z"/>
	<path id="Layer" class="s1" d="m387.3 675.4c-0.1 2.6-0.3 4.8-0.3 4.8q-0.5-0.4-0.9-0.8-0.5-0.3-0.9-0.7-0.4-0.4-0.8-0.8-0.4-0.4-0.8-0.8c-3.2-3.2-6.6-8.2-1.8-11.2 5.1-3.1 5.7 4.2 5.5 9.5z"/>
	<path id="Layer" class="s1" d="m403.6 678.9q-0.7 0.9-1.6 1.7-0.8 0.8-1.7 1.5-0.9 0.6-1.9 1.2-1 0.6-2 1-0.3 0.1-0.6 0.3-0.3 0.1-0.6 0.2-0.3 0.1-0.7 0.2-0.3 0.1-0.6 0.2l-3.2-4.6q0.1-0.5 0.3-1.1 0.1-0.5 0.3-1.1 0.2-0.5 0.3-1.1 0.2-0.5 0.4-1.1 0.2-0.6 0.5-1.1 0.2-0.6 0.5-1.1 0.3-0.5 0.6-1.1 0.4-0.5 0.7-1c4.5-5.9 13.6 0.9 9.3 7z"/>
	<path id="Layer" class="s2" d="m343.8 675.9c1.3 1.6 2.3 2.8 2.3 2.8l-2.8 8c0 0-1.5-1.1-3.5-2.8q0.2-0.9 0.5-1.9 0.3-0.9 0.7-1.8 0.3-0.9 0.8-1.7 0.5-0.9 1.1-1.6c0.3-0.4 0.6-0.7 0.9-1z"/>
	<path id="Layer" class="s2" d="m351.9 674.1q-0.4 0.5-0.7 0.9-0.3 0.4-0.6 0.8-0.4 0.3-0.7 0.7-0.4 0.4-0.7 0.8-0.1-0.5-0.2-1.1-0.1-0.5-0.1-1-0.1-0.5-0.1-1.1-0.1-0.5-0.1-1 0.4 0 0.8 0 0.4 0.1 0.8 0.3 0.5 0.1 0.8 0.3 0.4 0.2 0.8 0.4z"/>
	<path id="Layer" class="s1" d="m365.4 706.1l-6.9 3c0 0-1.5-0.8-3.6-2.1-7.2-4.4-21.6-15.5-12-28.7 9.7-13.1 17.8 10.4 21 22 1 3.4 1.5 5.8 1.5 5.8z"/>
	<path id="Layer" class="s2" d="m383.6 677.1q0.3-0.3 0.8-0.6 0.4-0.4 0.9-0.6 0.5-0.2 1-0.3 0.5-0.1 1-0.2c-0.1 2.7-0.3 4.8-0.3 4.8q-0.5-0.4-0.9-0.7-0.5-0.4-0.9-0.8-0.4-0.4-0.8-0.8-0.4-0.3-0.9-0.8z"/>
	<path id="Layer" class="s2" d="m396.4 684.3q-0.3 0.1-0.6 0.3-0.3 0.1-0.6 0.2-0.3 0.1-0.7 0.2-0.3 0.1-0.6 0.2l-3.2-4.6q0.1-0.5 0.3-1.1 0.1-0.5 0.3-1.1 0.2-0.5 0.3-1.1 0.2-0.5 0.4-1.1c2.1 1.2 3.7 4.3 4.4 8.1z"/>
	<path id="Layer" class="s1" d="m379.4 714l-1.2 0.2c-22.9 3.5-7.5-8.8-7.5-8.8 0 0 1-1 2.4-2.5 2.8-3.1 6.9-8.4 7.4-13.4 0.7-7.4 1.6-14.4 10.3-12.3 8.6 1.9 10.3 32.5-11.4 36.8z"/>
	<path id="Layer" class="s27" d="m335.1 771.1h43.8v11.5h-43.8z"/>
	<path id="Layer" class="s27" d="m328.2 733.7h57.2v40.2h-57.2z"/>
	<path id="Layer" class="s2" d="m335.1 771.1h43.8v11.5h-43.8z"/>
	<path id="Layer" class="s2" d="m328.2 733.7h57.2v40.2h-57.2z"/>
	<path id="Layer" class="s27" d="m338 771.1h43.8v11.5h-43.8z"/>
	<path id="Layer" class="s2" d="m363.9 700.3c1 3.4 1.5 5.8 1.5 5.8l-6.9 3c0 0-1.5-0.8-3.6-2.1 2.7-3.4 5.7-5.9 9-6.7z"/>
	<path id="Layer" class="s2" d="m379.4 714l-1.2 0.2c-22.9 3.5-7.5-8.8-7.5-8.8 0 0 1-1 2.4-2.5 4.3 3.4 6 7.2 6.3 11.1z"/>
	<path id="Layer" class="s1" d="m342.1 736c-0.1 0 12.8-46 30.8-31.8 18 14.2-7.3 36-7.3 36z"/>
	<path id="Layer" class="s2" d="m348.6 687c-0.8 0-1.5-0.6-1.5-1.4 0-0.8 0.7-1.5 1.5-1.5 0.8 0 1.4 0.7 1.4 1.5 0 0.8-0.6 1.4-1.4 1.4z"/>
	<path id="Layer" class="s2" d="m348.5 693.7c-0.8 0-1.5-0.6-1.5-1.4 0-0.8 0.7-1.5 1.5-1.5 0.8 0 1.4 0.7 1.4 1.5 0 0.8-0.6 1.4-1.4 1.4z"/>
	<path id="Layer" class="s2" d="m390.2 688.3c-0.8 0-1.4-0.6-1.4-1.4 0-0.8 0.6-1.5 1.4-1.5 0.8 0 1.5 0.7 1.5 1.5 0 0.8-0.7 1.4-1.5 1.4z"/>
	<path id="Layer" class="s2" d="m356.6 722.8c-0.8 0-1.4-0.7-1.4-1.5 0-0.8 0.6-1.4 1.4-1.4 0.8 0 1.5 0.6 1.5 1.4 0 0.8-0.7 1.5-1.5 1.5z"/>
	<path id="Layer" class="s2" d="m387.2 699.5c-0.8 0-1.4-0.7-1.4-1.5 0-0.8 0.6-1.4 1.4-1.4 0.8 0 1.5 0.6 1.5 1.4 0 0.8-0.7 1.5-1.5 1.5z"/>
	<path id="Layer" class="s2" d="m372.3 714.4c-0.8 0-1.4-0.7-1.4-1.5 0-0.8 0.6-1.4 1.4-1.4 0.8 0 1.5 0.6 1.5 1.4 0 0.8-0.7 1.5-1.5 1.5z"/>
	<path id="Layer" class="s2" d="m353.5 689.9c-0.8 0-1.4-0.7-1.4-1.5 0-0.8 0.6-1.4 1.4-1.4 0.8 0 1.4 0.6 1.4 1.4 0 0.8-0.6 1.5-1.4 1.5z"/>
	<path id="Layer" class="s2" d="m386.3 692.6c-0.8 0-1.5-0.6-1.5-1.4 0-0.8 0.7-1.4 1.5-1.4 0.8 0 1.4 0.6 1.4 1.4 0 0.8-0.6 1.4-1.4 1.4z"/>
	<path id="Layer" class="s2" d="m381.3 703.8c-0.8 0-1.4-0.6-1.4-1.4 0-0.8 0.6-1.5 1.4-1.5 0.8 0 1.5 0.7 1.5 1.5 0 0.8-0.7 1.4-1.5 1.4z"/>
	<path id="Layer" class="s2" d="m366.2 721.7c-0.8 0-1.4-0.7-1.4-1.5 0-0.7 0.6-1.4 1.4-1.4 0.8 0 1.5 0.7 1.5 1.4 0 0.8-0.7 1.5-1.5 1.5z"/>
	<path id="Layer" class="s2" d="m363.1 714.6c-0.8 0-1.4-0.6-1.4-1.4 0-0.8 0.6-1.5 1.4-1.5 0.8 0 1.4 0.7 1.4 1.5 0 0.8-0.6 1.4-1.4 1.4z"/>
	<path id="Layer" class="s2" d="m355.7 698.6c-0.8 0-1.5-0.6-1.5-1.4 0-0.8 0.7-1.4 1.5-1.4 0.8 0 1.4 0.6 1.4 1.4 0 0.8-0.6 1.4-1.4 1.4z"/>
	<path id="Layer" class="s2" d="m338 771.1h43.8v4.2h-43.8z"/>
	<path id="Layer" class="s27" d="m331.1 733.7h57.2v40.2h-57.2z"/>
	<path id="Layer" class="s2" d="m368.1 728.2c-0.8 0-1.4-0.7-1.4-1.5 0-0.8 0.6-1.4 1.4-1.4 0.8 0 1.5 0.6 1.5 1.4 0 0.8-0.7 1.5-1.5 1.5z"/>
	<path id="Layer" class="s2" d="m359.5 730c-0.8 0-1.4-0.7-1.4-1.5 0-0.8 0.6-1.4 1.4-1.4 0.8 0 1.4 0.6 1.4 1.4 0 0.8-0.6 1.5-1.4 1.5z"/>
</svg>