<svg version="1.2" xmlns="http://www.w3.org/2000/svg" viewBox="0 0 895 671" width="895" height="671">
	<title>illustration-6-svg</title>
	<style>
		.s0 { fill: #d0cde1 } 
		.s1 { fill: #3f3d56 } 
		.s2 { fill: #ff6584 } 
		.s3 { fill: #5cc9a7 } 
		.s4 { fill: #f1f1f1 } 
		.s5 { fill: #fbbebe } 
		.s6 { fill: #2f2e41 } 
		.s7 { opacity: .1;fill: #000000 } 
		.s8 { fill: #a0616a } 
	</style>
	<path id="Layer" class="s0" d="m447.1 640.9c-247.3 0-447.1-12.5-447.1-28 0-15.6 199.8-28.1 447.1-28.1 247.2 0 447 12.5 447 28.1 0 15.5-199.8 28-447 28z"/>
	<path id="Layer" class="s1" d="m187.1 30h520v212.1h-520z"/>
	<path id="Layer" class="s2" d="m261.8 109h-38.8q-1-5.8-1.5-11.5-0.5-5.8-0.5-11.6 0-5.9 0.5-11.6 0.5-5.8 1.5-11.6h38.8q-1.6 5.7-2.5 11.5-0.8 5.8-0.8 11.7 0 5.8 0.8 11.6 0.9 5.8 2.5 11.5z"/>
	<path id="Layer" class="s3" d="m342.5 96h38.8q1-5.7 1.5-11.5 0.5-5.8 0.5-11.6 0-5.8-0.5-11.6-0.5-5.8-1.5-11.5h-38.8q1.7 5.6 2.5 11.4 0.8 5.8 0.8 11.7 0 5.9-0.8 11.7-0.8 5.8-2.5 11.4z"/>
	<path id="Layer" class="s4" d="m585.8 117.8q30.7 0.3 61.3-1.9l-1.3-1.8c-3.4 8.5-3.3 17.4-2.8 26.4 0.1 2.2 0.8 5.3 0.3 7.5-0.5 2.8-3 2.1-5.5 2.2q-8.3 0.3-16.6 0.4-7.8 0.1-15.6 0.1-3.6 0-7.3-0.1c-2.9 0-6.2 0.8-6.9-2.5-0.5-2.1 0-4.9 0-7.1v-8-16.1c0-0.4-0.1-0.7-0.4-1-0.3-0.2-0.6-0.4-1-0.4-0.3 0-0.7 0.2-1 0.4-0.2 0.3-0.4 0.6-0.4 1v19.6 8.9c0 1.8-0.4 3.9 0.3 5.6 1.5 3.9 8.1 2.4 11.2 2.5q9.7 0.1 19.3-0.1 9.6-0.1 19.3-0.4c2.7-0.1 6.6 0.5 7.4-2.9 0.6-2.4-0.1-5.5-0.2-7.9-0.2-2.8-0.3-5.6-0.4-8.4 0-6.5 0.6-12.8 3-18.9q0.1-0.4 0-0.7 0-0.3-0.2-0.6-0.2-0.2-0.5-0.4-0.3-0.1-0.7-0.1-30.6 2.2-61.3 1.9c-0.4 0-0.8 0.1-1 0.4-0.3 0.3-0.4 0.6-0.4 1 0 0.3 0.1 0.7 0.4 1 0.2 0.2 0.6 0.4 1 0.4z"/>
	<path id="Layer" class="s4" d="m591.6 119.3q3.3 1.2 6.5 2.5 3.3 1.2 6.5 2.6 3.2 1.4 6.3 2.9 3.2 1.5 6.3 3.1c7.4 3.8 17.1 8 22.2 14.9 1.1 1.4 3.5 0 2.5-1.5-5.3-7-14.2-11.1-21.8-15.1q-3.3-1.7-6.8-3.4-3.4-1.6-6.9-3.1-3.4-1.5-7-2.9-3.5-1.4-7.1-2.7c-1.7-0.6-2.4 2.1-0.7 2.7z"/>
	<path id="Layer" class="s4" d="m646.7 114.3c-9.3 4-17.2 11.7-25.5 17.3q-13.5 9.3-27.8 17.2c-1.6 0.9-0.2 3.3 1.4 2.4q14.3-7.9 27.8-17.1c8.3-5.7 16.2-13.4 25.5-17.4 1.7-0.7 0.2-3.1-1.4-2.4z"/>
	<path id="Layer" class="s4" d="m403.6 123q28.4 0.5 56.9-0.2c1.8 0 1.8-2.8 0-2.8q-28.5 0.7-56.9 0.2c-0.4 0-0.8 0.2-1 0.5-0.3 0.2-0.4 0.6-0.4 0.9 0 0.4 0.1 0.8 0.4 1 0.2 0.3 0.6 0.4 1 0.4z"/>
	<path id="Layer" class="s4" d="m405.2 135.8q29.2 0.5 58.5-0.2c1.8-0.1 1.8-2.9 0-2.9q-29.3 0.8-58.5 0.3c-0.4 0-0.8 0.2-1 0.4-0.3 0.3-0.4 0.6-0.4 1 0 0.4 0.1 0.7 0.4 1 0.2 0.2 0.6 0.4 1 0.4z"/>
	<path id="Layer" class="s4" d="m403 149.6l55.4-2.6c1.8-0.1 1.8-2.9 0-2.8l-55.4 2.6c-1.8 0.1-1.8 2.9 0 2.8z"/>
	<path id="Layer" class="s4" d="m489.2 136.2h52.7c0.4 0 0.7-0.2 1-0.4 0.2-0.3 0.4-0.6 0.4-1 0-0.4-0.2-0.7-0.4-1-0.3-0.2-0.6-0.4-1-0.4h-52.7c-0.3 0-0.7 0.2-0.9 0.4-0.3 0.3-0.4 0.6-0.4 1 0 0.4 0.1 0.7 0.4 1 0.2 0.2 0.6 0.4 0.9 0.4z"/>
	<path id="Layer" class="s4" d="m539.6 120.1l8.2 7.5c1 0.9 3.6 2.7 4.2 3.8 1.2 2.3-0.1 1.8-2.2 2.6q-1.9 0.7-3.7 1.7-1.9 0.9-3.6 2-1.8 1-3.4 2.3-1.6 1.2-3.2 2.6c-1.3 1.2 0.7 3.2 2 2q1.4-1.3 2.9-2.4 1.5-1.1 3.1-2.1 1.6-1 3.2-1.9 1.7-0.8 3.4-1.5c1.7-0.7 4.8-1 5.6-3 1-2.4-2.1-4.2-3.5-5.6l-11-10c-1.3-1.2-3.3 0.8-2 2z"/>
	<path id="Layer" class="s3" d="m411.8 230h38.7q1-5.7 1.5-11.5 0.5-5.8 0.5-11.6 0-5.8-0.5-11.6-0.5-5.8-1.5-11.5h-38.7q1.6 5.6 2.4 11.4 0.8 5.9 0.8 11.7 0 5.9-0.8 11.7-0.8 5.8-2.4 11.4z"/>
	<path id="Layer" class="s3" d="m250.3 195.3h38.8q1-5.7 1.5-11.5 0.5-5.8 0.5-11.6 0-5.8-0.5-11.6-0.5-5.8-1.5-11.5h-38.8q1.6 5.6 2.5 11.4 0.8 5.8 0.8 11.7 0 5.9-0.8 11.7-0.9 5.8-2.5 11.4z"/>
	<path id="Layer" class="s3" d="m495.3 93.9h38.8q1-5.7 1.4-11.5 0.5-5.8 0.5-11.6 0-5.8-0.5-11.6-0.4-5.8-1.4-11.5h-38.8q1.6 5.6 2.4 11.4 0.9 5.9 0.9 11.7 0 5.9-0.9 11.7-0.8 5.8-2.4 11.4z"/>
	<path id="Layer" class="s5" d="m880.9 564.8l5.1 20.3-22.3 6-2-21.2 19.2-5.1z"/>
	<path id="Layer" class="s5" d="m800 590.1v19.2l-22.2 4.1-4-10.1 8.1-17.2 18.1 4z"/>
	<path id="Layer" class="s6" d="m844.5 380.9l-3 27.3 2 52.5q0.6 0 1.2 0.3 0.5 0.2 1 0.6 0.4 0.4 0.6 1 0.3 0.6 0.2 1.2c0 3-3 2 0 4q0.6 0.4 1.3 0.8 0.6 0.4 1.2 0.8 0.7 0.4 1.3 0.8 0.6 0.3 1.3 0.7l32.3 98c0 0-8.1 10.1-23.2 7.1l-3-10.1c0 0-6.1-6.1-6.1-9.1 0-3.1 2-4.1 0-7.1-2-3-32.3-64.7-32.3-64.7l-14.2-25.3-4 34.4c0 0 8 43.5 6 63.7-2 20.2-6 41.4-6 41.4l-24.3-4q0-1.2-0.3-2.4-0.2-1.2-0.6-2.4-0.3-1.2-0.9-2.2-0.5-1.1-1.2-2.1c-3.1-4.1-7.1-3.1-3.1-6.1 4.1-3 9.1 0 5.1-4-4.1-4.1-4.1-8.1-4.1-8.1v-3.1l-6-77.8-11.1-102.1z"/>
	<path id="Layer" class="s5" d="m775.8 197c-15.1 0-27.3-12.2-27.3-27.3 0-15.1 12.2-27.3 27.3-27.3 15.1 0 27.3 12.2 27.3 27.3 0 15.1-12.2 27.3-27.3 27.3z"/>
	<path id="Layer" class="s5" d="m799.5 170.2l11.2 27.3-26.3 19.2-16.2-28.3 31.3-18.2z"/>
	<path id="Layer" class="s0" d="m801.1 190.9l10.1-5.1 6 14.2c0 0 39.4 12.1 36.4 67.7-3 55.6-10.1 76.8-10.1 76.8 0 0 17.2 36.4 7.1 40.4-10.1 4.1-96 19.3-98.1 5.1-2-14.1 7.1-97 7.1-97 0 0-3-59.7 22.3-71.8l-5.1-11.1z"/>
	<path id="Layer" class="s5" d="m745.5 387c0 0-23.3 24.2-10.1 30.3 13.1 6.1 21.2-27.3 21.2-27.3z"/>
	<path id="Layer" class="s6" d="m793 604.3l11.1-4.1c0 0 12.1 27.3 2 27.3h-26.3c0 0-15.1-5-23.2-5-8.1 0-23.3-15.2-12.1-22.3 11.1-7.1 25.2-5 25.2-5l4.1-9.1 5 14.1c0 0 6.1 10.1 14.2 4.1z"/>
	<path id="Layer" class="s6" d="m874.8 582c0 0 6.4-4 9.8-2.5 3.4 1.5 5.4 17.7 5.4 17.7 0 0 10.1 12.1-12.1 14.1-22.3 2.1-27.3-2-29.3-8-2.1-6.1 2-12.2 2-12.2l6-2c0 0 7.1-5 5.1-7.1-2-2 0-6 0-6 0 0 7.1 14.1 13.1 6z"/>
	<path id="Layer" class="s6" d="m785.1 169.2q0-0.3-0.1-0.6 0-0.4-0.1-0.7-0.1-0.3-0.2-0.6-0.1-0.3-0.2-0.7c-1.4-3-7.2-2.1-8.2-5.4-0.2-0.6-0.1-1.3-0.3-2-0.5-1.6-2.4-2.4-4.1-2.3q-0.7 0.1-1.3 0.2-0.6 0.1-1.2 0.3-0.7 0.1-1.3 0.3-0.6 0.2-1.2 0.5c-4 1.1-8.2 0.7-12.4 0.2q-0.6 0-1.3-0.1-0.7-0.1-1.4-0.3-0.6-0.2-1.3-0.4-0.6-0.2-1.2-0.6c-1.6-0.9-2.7-2.9-2.2-4.6 0.6-1.7 2.4-2.6 3.2-4.2 1.3-2.4-0.3-5.6 0.8-8.2 1.7-4.2 8.2-3.3 11.4-6.4 0.8-0.7 1.4-1.7 2.2-2.5 2.2-2.3 5.8-2.7 9-2.4 3.2 0.3 6.4 1.2 9.6 1.2 3.1-0.1 6.3-1 9.1 0.2q0.6 0.3 1.2 0.7 0.6 0.4 1.1 0.8 0.6 0.5 1.1 1 0.5 0.5 0.9 1l7.2 8q0.4 0.3 0.7 0.7 0.4 0.4 0.6 0.8 0.3 0.4 0.6 0.9 0.2 0.4 0.4 0.9c0.4 1.5 0 3.2 0.2 4.7 0.4 3.6 3.8 6.3 4.2 9.9q0.1 0.4 0.1 0.9 0 0.4-0.1 0.8 0 0.4 0 0.8-0.1 0.4-0.1 0.8l-1.1 7.5q0 0.3 0 0.6-0.1 0.2-0.1 0.5-0.1 0.3-0.2 0.5-0.1 0.3-0.2 0.5c-0.3 0.5-0.8 0.9-1.1 1.4-0.9 1.4-0.8 3.2-1.3 4.7-0.5 1.6-2.2 3.2-3.6 2.4-1-0.5-1.6-4.6-2.8-5.7-1.6-1.4-2.4-1.3-4.4-1.2-4 0-9.3 0.4-10.6-4.8z"/>
	<path id="Layer" class="s0" d="m789.9 228.3c0 0 30.4 12.1 21.3 39.4-9.1 27.3-33.4 111.2-33.4 111.2l-14.1 7.1-4.1 11.1-19.2-7.1 3.1-15.2c0 0 1-1 1-5 0-4.1-4.1-5.1 1-5.1 5 0 5-5 5-5l18.2-113.2c0 0 0-19.2 21.2-18.2z"/>
	<path id="Layer" class="s7" d="m812.7 273.3l-31.3 107.1-13.2 13.1 7.6-13.6 36.9-106.6z"/>
	<path id="Layer" class="s6" d="m60.9 209.1l31.7 5.3 10.6-50.3-25.6-10.6-16.7 55.6z"/>
	<path id="Layer" class="s8" d="m104.5 199c-15.1 0-27.3-12.2-27.3-27.4 0-15.1 12.2-27.3 27.3-27.3 15.2 0 27.4 12.2 27.4 27.3 0 15.2-12.2 27.4-27.4 27.4z"/>
	<path id="Layer" class="s8" d="m92.6 187.1c0 0 2.7 33.5-17.6 36.1-20.3 2.7 17.6 62.7 27.3 61.8 9.7-0.9 27.4-65.3 27.4-65.3 0 0-23-15.9-15-30z"/>
	<path id="Layer" class="s8" d="m58.7 309.3c0 0 3.5 25.5 14.1 25.5 10.6 0-7.1-29.1-7.1-29.1z"/>
	<path id="Layer" class="s8" d="m213.1 334.8c0 0 26.4 22.1 22.9 29.2-3.5 7-26.5-8-28.2-25.6z"/>
	<path id="Layer" class="s8" d="m53.4 419.5l-16.8 62.7-18.5 75.9h17.6c0 0 6.2-23.9 17.7-36.2 0 0 11.4-19.4 11.4-32.7l27.4-64.4z"/>
	<path id="Layer" class="s8" d="m125.7 423.1l5.3 59.1c0 0-0.9 42.3 0 52 0.9 9.7 0 23.9 0 23.9h15.9c0 0 15-52.1 10.6-80.3l6.2-66.2z"/>
	<path id="Layer" class="s6" d="m104.5 260.7c0 0-23.7-18.8-17.6-45.1 0 0-23.8 1-33.5 10.7-9.7 9.7 2.6 42.4 2.6 42.4 0 0 21.2 35.3 17.7 51.1-3.6 15.9-41.5 99.7-29.2 105 12.4 5.3 87.4 23.9 125.3-7 0 0 9.7-87.4-29.1-115.6v-22.1c0 0 7.1-6.1 3.5-22 0 0 15-27.4 6.2-32.7-8.8-5.2-29.1-13-29.1-13 0 0 1.8 39.5-16.8 48.3z"/>
	<path id="Layer" class="s6" d="m58.7 226.3c0 0-11.5-1.7-23 15-11.4 16.8-41.4 43.3-27.3 56.5 14.1 13.2 52 22 52 22l8.8-15.8-37.9-18.6 31.8-23.8z"/>
	<path id="Layer" class="s6" d="m146 226.3c0 0 12.4 0 17.7 15 5.2 15 36.1 66.2 36.1 66.2l17.7 27.3-12.4 14.2-34.4-38.9-32.6-53.8z"/>
	<path id="Layer" class="s6" d="m39.3 556.3h-24.8l-5.2 43.2c0 0-14.2 23 7 20.3 21.2-2.6 14.1-26.5 14.1-26.5l5.3-8.8 1.8 18.6 1.8-0.9v-20.3c0 0 9.7-8.8 0-25.6z"/>
	<path id="Layer" class="s6" d="m151.3 556.3l-22.9-1.8-4.5 49.4c0 0-2.6 18.6 13.3 15.9 15.9-2.6 10.6-17.6 10.6-17.6v-27.4z"/>
	<path id="Layer" class="s6" d="m84.7 143.8c0 0-12.9 4.3-13.5 21.2q0 1.1 0 2.1 0 1 0.2 2 0.1 1 0.2 2 0.2 1 0.5 2c0.7 3 1.2 9.6-4.4 18.3q-1.5 2.1-2.8 4.3-1.3 2.1-2.6 4.4-1.3 2.2-2.5 4.4-1.3 2.3-2.4 4.5l-0.1 0.1 14.2 1.8 3-23.4q0.5-4.3 1.4-8.5 0.8-4.2 2-8.3 1.1-4.1 2.6-8.1 1.5-4.1 3.2-8l0.1-0.2c0 0 6.2 11.5 18.5 11.5l-4.4-4.4c0 0 19.4 7.9 26.5 7.9 0 0 5.3 3.6 0 8.8-5.3 5.3-15.9 17.7-9.7 27.4 6.2 9.7 0.9 12.3 0.9 12.3l9.7-5.2 4.4-2.7v3.5l22.9-2.6c0 0 6.2-0.9-7-15.9 0 0-3.5-5.8-2-10.8q0.5-1.5 0.8-2.9 0.3-1.5 0.4-3 0.1-1.5 0.1-3-0.1-1.5-0.3-3c-3-16.5-14.6-49.4-59.9-28.5z"/>
	<path id="Layer" class="s1" d="m586.1 639.2c-0.1-0.2-2.9-4.9-3.9-14.7-0.9-9-0.3-24.2 7.6-45.4 14.9-40.1-3.5-72.5-3.7-72.8l0.9-0.5q1.4 2.5 2.5 5.1 1.1 2.6 2.1 5.3 0.9 2.7 1.7 5.5 0.8 2.7 1.3 5.5 1.4 6.5 1.8 13.2 0.5 6.6 0 13.2-0.5 6.6-1.9 13.1-1.4 6.5-3.8 12.8c-14.9 40-3.8 59-3.7 59.2z"/>
	<path id="Layer" class="s1" d="m580.3 503.9c-3.8 0-6.8-3-6.8-6.8 0-3.7 3-6.8 6.8-6.8 3.8 0 6.8 3.1 6.8 6.8 0 3.8-3 6.8-6.8 6.8z"/>
	<path id="Layer" class="s1" d="m601.8 529c-3.8 0-6.8-3-6.8-6.8 0-3.7 3-6.8 6.8-6.8 3.7 0 6.8 3.1 6.8 6.8 0 3.8-3.1 6.8-6.8 6.8z"/>
	<path id="Layer" class="s3" d="m587.1 545.8c-3.8 0-6.8-3.1-6.8-6.8 0-3.8 3-6.8 6.8-6.8 3.8 0 6.8 3 6.8 6.8 0 3.7-3 6.8-6.8 6.8z"/>
	<path id="Layer" class="s3" d="m604.9 559.9c-3.8 0-6.8-3-6.8-6.8 0-3.8 3-6.8 6.8-6.8 3.8 0 6.8 3 6.8 6.8 0 3.8-3 6.8-6.8 6.8z"/>
	<path id="Layer" class="s1" d="m581.9 581.9c-3.8 0-6.8-3-6.8-6.8 0-3.8 3-6.8 6.8-6.8 3.7 0 6.8 3 6.8 6.8 0 3.8-3.1 6.8-6.8 6.8z"/>
	<path id="Layer" class="s1" d="m590.2 639.5c0 0-6.8-16.8 13.7-29.3z"/>
	<path id="Layer" class="s1" d="m581.9 639.2c0 0-3.1-17.9-27.1-17.7z"/>
	<path id="Layer" class="s0" d="m311.9 589.8c-0.1-0.2-2.9-5-3.9-14.8-0.9-9-0.3-24.2 7.6-45.4 14.9-40.1-3.5-72.5-3.7-72.8l0.9-0.5q1.4 2.5 2.5 5.2 1.1 2.6 2.1 5.3 0.9 2.7 1.7 5.4 0.8 2.8 1.3 5.6 1.4 6.5 1.9 13.1 0.4 6.6-0.1 13.3-0.5 6.6-1.9 13.1-1.4 6.5-3.8 12.7c-14.8 40.1-3.8 59-3.7 59.2z"/>
	<path id="Layer" class="s1" d="m306.1 454.5c-3.8 0-6.8-3.1-6.8-6.8 0-3.8 3-6.8 6.8-6.8 3.8 0 6.8 3 6.8 6.8 0 3.7-3 6.8-6.8 6.8z"/>
	<path id="Layer" class="s1" d="m327.6 479.6c-3.8 0-6.8-3.1-6.8-6.8 0-3.8 3-6.8 6.8-6.8 3.7 0 6.8 3 6.8 6.8 0 3.7-3.1 6.8-6.8 6.8z"/>
	<path id="Layer" class="s0" d="m312.9 496.3c-3.7 0-6.8-3-6.8-6.8 0-3.7 3.1-6.8 6.8-6.8 3.8 0 6.8 3.1 6.8 6.8 0 3.8-3 6.8-6.8 6.8z"/>
	<path id="Layer" class="s0" d="m330.7 510.5c-3.8 0-6.8-3.1-6.8-6.8 0-3.8 3-6.8 6.8-6.8 3.8 0 6.8 3 6.8 6.8 0 3.7-3 6.8-6.8 6.8z"/>
	<path id="Layer" class="s1" d="m307.7 532.4c-3.8 0-6.8-3-6.8-6.8 0-3.7 3-6.8 6.8-6.8 3.7 0 6.8 3.1 6.8 6.8 0 3.8-3.1 6.8-6.8 6.8z"/>
	<path id="Layer" class="s0" d="m316.1 590c0 0-6.9-16.7 13.6-29.3z"/>
	<path id="Layer" class="s0" d="m307.7 589.7c0 0-3.1-17.8-27.1-17.7z"/>
</svg>